<svg xmlns="http://www.w3.org/2000/svg" width="250" height="100" viewBox="0 0 250 100"><g transform="translate(8,5)translate(44.5,44.5)rotate(270)translate(-44.5,-44.5) scale(0.9368361360235702,0.9368361360235702)" opacity="1"><defs class="defs"/><path transform="translate(252.6,-349.5)" d="M-192,402c-0.1,0.3 -0.2,0.7 -0.5,0.9c-0.3,0.3 -0.6,0.4 -0.9,0.5c0.3,0.1 0.7,0.2 0.9,0.5c0.3,0.3 0.4,0.6 0.5,0.9c0.1,-0.3 0.2,-0.7 0.5,-0.9c0.3,-0.3 0.6,-0.4 0.9,-0.5c-0.3,-0.1 -0.7,-0.2 -0.9,-0.5c-0.3,-0.2 -0.4,-0.6 -0.5,-0.9zM-190.4,395.8h-0.9c-0.5,0 -1.6,0 -2.5,-0.9l-7.1,-7.1c-0.9,-0.9 -0.9,-2.1 -0.9,-2.9c0,-1.2 0.1,-2.5 -2.2,-4.8c-1.3,-1.3 -3.1,-2 -4.9,-2c-1.4,0 -2.8,0.4 -3.9,1.2c-0.1,0 -0.1,0.1 -0.2,0.1l-12.5,6.6c-1.8,0.9 -5.8,3.3 -5.4,5c0.1,0.5 0.5,2.1 4.9,2.1h0.4c0,0 9.3,-0.4 9.8,-0.4c0.6,0 1.3,0.3 1.7,0.9c0.6,0.9 1.3,1.4 2.3,1.4c0.9,0 1.6,-0.3 1.8,-0.5c0.7,-0.4 1.6,-0.2 2.1,0.3l7.1,7.1c0.6,0.6 0.7,1.4 0.3,2.1c-0.3,0.6 -1.2,2.9 0.9,4.2c0.6,0.3 0.9,1 0.9,1.7v0c0,0.4 -0.4,9.8 -0.4,9.8c-0.1,4.8 1.6,5.2 2.1,5.3c0.1,0 0.2,0 0.3,0c0.3,0 1.9,-0.3 4.7,-5.5l6.6,-12.5c0,-0.1 0.1,-0.1 0.1,-0.2c1.9,-2.8 1.5,-6.5 -0.8,-8.9c-2.2,-2.1 -3.6,-2.1 -4.3,-2.1zM-205.7,387.1c0.7,0.7 0.7,1.9 0,2.6c-0.4,0.4 -0.8,0.5 -1.3,0.5c-0.5,0 -0.9,-0.2 -1.3,-0.5l-1.4,-1.4l-1.4,1.4c-0.4,0.4 -0.8,0.5 -1.3,0.5c-0.5,0 -0.9,-0.2 -1.3,-0.5c-0.7,-0.7 -0.7,-1.9 0,-2.6l1.4,-1.4l-1.4,-1.4c-0.7,-0.7 -0.7,-1.9 0,-2.6c0.7,-0.7 1.9,-0.7 2.6,0l1.4,1.4l1.4,-1.4c0.7,-0.7 1.9,-0.7 2.6,0c0.7,0.7 0.7,1.9 0,2.6l-1.4,1.4zM-188.9,403.8l0.5,0.5c0.7,0.7 0.7,1.9 0,2.6c-0.4,0.4 -0.8,0.5 -1.3,0.5c-0.5,0 -1,-0.2 -1.3,-0.5l-0.5,-0.5c-0.3,-0.3 -0.4,-0.6 -0.5,-0.9c-0.1,0.3 -0.2,0.7 -0.5,0.9l-0.5,0.5c-0.4,0.4 -0.8,0.5 -1.3,0.5c-0.5,0 -1,-0.2 -1.3,-0.5c-0.7,-0.7 -0.7,-1.9 0,-2.6l0.5,-0.5c0.3,-0.3 0.6,-0.4 0.9,-0.5c-0.3,-0.1 -0.7,-0.2 -0.9,-0.5l-0.5,-0.5c-0.7,-0.7 -0.7,-1.9 0,-2.6c0.7,-0.7 1.9,-0.7 2.6,0l0.5,0.5c0.3,0.3 0.4,0.6 0.5,0.9c0.1,-0.3 0.2,-0.7 0.5,-0.9l0.5,-0.5c0.7,-0.7 1.9,-0.7 2.6,0c0.7,0.7 0.7,1.9 0,2.6l-0.5,0.5c-0.3,0.3 -0.6,0.4 -0.9,0.5c0.3,0.1 0.6,0.3 0.9,0.5zM-187.3,352.9c-5.5,-2.2 -11.5,-3.4 -17.7,-3.4c-24.3,0 -44.3,18.2 -47.2,41.6c-0.2,1.9 -0.4,3.9 -0.4,5.9c0,26.3 21.3,47.5 47.5,47.5c26.3,0 47.5,-21.3 47.5,-47.5c0.1,-20 -12.2,-37.1 -29.7,-44.1zM-182.1,408.9l-6.6,12.4c-2.7,5.1 -5.2,7.5 -7.9,7.5c-0.5,0 -0.9,-0.1 -1.2,-0.1c-2.3,-0.5 -5.1,-2.6 -5,-9l0.2,-5c0.1,-1.8 0.1,-3 0.2,-3.9c-2.3,-1.9 -2.7,-4.7 -1.9,-7.1l-5.4,-5.4c-0.6,0.2 -1.4,0.3 -2.2,0.3c-1.9,0 -3.6,-0.8 -4.8,-2.2c-1.3,0.1 -3.8,0.2 -8.9,0.4h-0.5c-6.1,0 -8,-2.7 -8.5,-5c-0.8,-3.2 1.5,-6 7.3,-9.1l12.4,-6.6c1.8,-1.2 3.8,-1.8 5.9,-1.8c2.9,0 5.5,1.1 7.6,3.1c3.2,3.2 3.4,5.5 3.3,7.5c0,0.1 0,0.3 0,0.4l6.8,6.8h0.1h0.3c1.7,-0.1 4.2,0 7.5,3.3c3.5,3.6 4.1,9.3 1.3,13.5z" fill="#000000" class="fill c1"/></g><g transform="translate(98,-10)translate(38.5,38.5)rotate(0)translate(-38.5,-38.5)" opacity="1"><filter id="shadow_1" x="-38" y="-38" width="77" height="77"><feGaussianBlur stdDeviation="0"/><feOffset dx="2" dy="7"/></filter><path transform="translate(6,0)rotate(0)" d="M13.16 51.25L13.16 51.25L13.16 51.25Q5.61 48.25 2.93 43.64L2.93 43.64L2.93 43.64Q2.93 36.78 6.99 28.67L6.99 28.67L6.99 28.67Q11.04 20.56 16.09 17.94L16.09 17.94L16.09 17.94Q18.78 17.94 21.08 18.25L21.08 18.25L21.08 18.25Q28.82 17.87 33.68 16.69L33.68 16.69L35.43 16.32L35.43 16.32Q32.94 24.55 31.44 33.84L31.44 33.84L31.44 33.84Q28.88 32.72 26.01 30.66L26.01 30.66L26.01 30.66Q23.14 28.60 21.33 26.55L21.33 26.55L21.33 26.55Q16.09 33.97 15.10 42.64L15.10 42.64L23.33 40.46L23.33 40.46Q23.45 38.21 23.95 35.84L23.95 35.84L23.95 35.84Q28.26 37.03 34.31 37.03L34.31 37.03L34.31 37.03Q32.69 40.52 29.44 50.44L29.44 50.44L28.32 53.74L28.32 53.74Q25.45 52.68 24.02 47.69L24.02 47.69L24.02 47.69Q19.52 50.12 13.16 51.25ZM45.29 51.25L45.29 51.25L45.29 51.25Q37.74 48.25 35.06 43.64L35.06 43.64L35.06 43.64Q35.06 36.78 39.11 28.67L39.11 28.67L39.11 28.67Q43.17 20.56 48.22 17.94L48.22 17.94L48.22 17.94Q50.90 17.94 53.21 18.25L53.21 18.25L53.21 18.25Q60.94 17.87 65.81 16.69L65.81 16.69L67.56 16.32L67.56 16.32Q65.06 24.55 63.56 33.84L63.56 33.84L63.56 33.84Q61.01 32.72 58.14 30.66L58.14 30.66L58.14 30.66Q55.27 28.60 53.46 26.55L53.46 26.55L53.46 26.55Q48.22 33.97 47.22 42.64L47.22 42.64L55.46 40.46L55.46 40.46Q55.58 38.21 56.08 35.84L56.08 35.84L56.08 35.84Q60.38 37.03 66.43 37.03L66.43 37.03L66.43 37.03Q64.81 40.52 61.57 50.44L61.57 50.44L60.45 53.74L60.45 53.74Q57.58 52.68 56.14 47.69L56.14 47.69L56.14 47.69Q51.65 50.12 45.29 51.25Z" fill="#D42A2A" stroke="#D42A2A" stroke-width="8" stroke-linejoin="round" stroke-miterlimit="2" opacity="1" style="filter:url(#shadow_1)"/><path transform="translate(6,0)rotate(0)" d="M13.16 51.25L13.16 51.25L13.16 51.25Q5.61 48.25 2.93 43.64L2.93 43.64L2.93 43.64Q2.93 36.78 6.99 28.67L6.99 28.67L6.99 28.67Q11.04 20.56 16.09 17.94L16.09 17.94L16.09 17.94Q18.78 17.94 21.08 18.25L21.08 18.25L21.08 18.25Q28.82 17.87 33.68 16.69L33.68 16.69L35.43 16.32L35.43 16.32Q32.94 24.55 31.44 33.84L31.44 33.84L31.44 33.84Q28.88 32.72 26.01 30.66L26.01 30.66L26.01 30.66Q23.14 28.60 21.33 26.55L21.33 26.55L21.33 26.55Q16.09 33.97 15.10 42.64L15.10 42.64L23.33 40.46L23.33 40.46Q23.45 38.21 23.95 35.84L23.95 35.84L23.95 35.84Q28.26 37.03 34.31 37.03L34.31 37.03L34.31 37.03Q32.69 40.52 29.44 50.44L29.44 50.44L28.32 53.74L28.32 53.74Q25.45 52.68 24.02 47.69L24.02 47.69L24.02 47.69Q19.52 50.12 13.16 51.25ZM45.29 51.25L45.29 51.25L45.29 51.25Q37.74 48.25 35.06 43.64L35.06 43.64L35.06 43.64Q35.06 36.78 39.11 28.67L39.11 28.67L39.11 28.67Q43.17 20.56 48.22 17.94L48.22 17.94L48.22 17.94Q50.90 17.94 53.21 18.25L53.21 18.25L53.21 18.25Q60.94 17.87 65.81 16.69L65.81 16.69L67.56 16.32L67.56 16.32Q65.06 24.55 63.56 33.84L63.56 33.84L63.56 33.84Q61.01 32.72 58.14 30.66L58.14 30.66L58.14 30.66Q55.27 28.60 53.46 26.55L53.46 26.55L53.46 26.55Q48.22 33.97 47.22 42.64L47.22 42.64L55.46 40.46L55.46 40.46Q55.58 38.21 56.08 35.84L56.08 35.84L56.08 35.84Q60.38 37.03 66.43 37.03L66.43 37.03L66.43 37.03Q64.81 40.52 61.57 50.44L61.57 50.44L60.45 53.74L60.45 53.74Q57.58 52.68 56.14 47.69L56.14 47.69L56.14 47.69Q51.65 50.12 45.29 51.25Z" fill="none" stroke="#FFFFFF" stroke-width="8" stroke-linejoin="round" stroke-miterlimit="2"/><path transform="translate(6,0)rotate(0)" d="M13.16 51.25L13.16 51.25L13.16 51.25Q5.61 48.25 2.93 43.64L2.93 43.64L2.93 43.64Q2.93 36.78 6.99 28.67L6.99 28.67L6.99 28.67Q11.04 20.56 16.09 17.94L16.09 17.94L16.09 17.94Q18.78 17.94 21.08 18.25L21.08 18.25L21.08 18.25Q28.82 17.87 33.68 16.69L33.68 16.69L35.43 16.32L35.43 16.32Q32.94 24.55 31.44 33.84L31.44 33.84L31.44 33.84Q28.88 32.72 26.01 30.66L26.01 30.66L26.01 30.66Q23.14 28.60 21.33 26.55L21.33 26.55L21.33 26.55Q16.09 33.97 15.10 42.64L15.10 42.64L23.33 40.46L23.33 40.46Q23.45 38.21 23.95 35.84L23.95 35.84L23.95 35.84Q28.26 37.03 34.31 37.03L34.31 37.03L34.31 37.03Q32.69 40.52 29.44 50.44L29.44 50.44L28.32 53.74L28.32 53.74Q25.45 52.68 24.02 47.69L24.02 47.69L24.02 47.69Q19.52 50.12 13.16 51.25ZM45.29 51.25L45.29 51.25L45.29 51.25Q37.74 48.25 35.06 43.64L35.06 43.64L35.06 43.64Q35.06 36.78 39.11 28.67L39.11 28.67L39.11 28.67Q43.17 20.56 48.22 17.94L48.22 17.94L48.22 17.94Q50.90 17.94 53.21 18.25L53.21 18.25L53.21 18.25Q60.94 17.87 65.81 16.69L65.81 16.69L67.56 16.32L67.56 16.32Q65.06 24.55 63.56 33.84L63.56 33.84L63.56 33.84Q61.01 32.72 58.14 30.66L58.14 30.66L58.14 30.66Q55.27 28.60 53.46 26.55L53.46 26.55L53.46 26.55Q48.22 33.97 47.22 42.64L47.22 42.64L55.46 40.46L55.46 40.46Q55.58 38.21 56.08 35.84L56.08 35.84L56.08 35.84Q60.38 37.03 66.43 37.03L66.43 37.03L66.43 37.03Q64.81 40.52 61.57 50.44L61.57 50.44L60.45 53.74L60.45 53.74Q57.58 52.68 56.14 47.69L56.14 47.69L56.14 47.69Q51.65 50.12 45.29 51.25Z" fill="#303231"/></g><g transform="translate(96,66)translate(73,14)rotate(0)translate(-73,-14)" opacity="1"><filter id="shadow_2" x="-13.5" y="-13.5" width="146" height="28"><feGaussianBlur stdDeviation="0"/><feOffset dx="1" dy="2"/></filter><path transform="translate(6,0)rotate(0)" d="M5.70 20.12L5.70 20.12Q4.41 20.12 3.36 19.55L3.36 19.55L3.36 19.55Q2.31 18.98 1.69 17.87L1.69 17.87L1.69 17.87Q1.08 16.77 1.08 15.23L1.08 15.23L1.08 15.23Q1.08 14.05 1.48 12.61L1.48 12.61L1.48 12.61Q2.37 9.53 4.26 8.26L4.26 8.26L4.26 8.26Q6.16 6.99 8.31 6.99L8.31 6.99L8.31 6.99Q10.28 6.99 11.85 8.42L11.85 8.42L12.43 7.86L12.43 7.86Q12.91 7.45 13.26 7.30L13.26 7.30L13.26 7.30Q13.60 7.15 14.07 7.15L14.07 7.15L14.07 7.15Q14.57 7.15 14.87 7.39L14.87 7.39L14.87 7.39Q15.18 7.63 15.18 8.03L15.18 8.03L15.18 8.03Q15.18 8.19 15.12 8.40L15.12 8.40L14.43 10.82L14.43 10.82Q14.24 11.44 13.98 11.69L13.98 11.69L13.98 11.69Q13.72 11.94 13.28 11.94L13.28 11.94L13.28 11.94Q12.82 11.94 12.46 11.71L12.46 11.71L12.46 11.71Q12.10 11.48 11.64 10.88L11.64 10.88L11.64 10.88Q11.03 10.07 10.55 9.73L10.55 9.73L10.55 9.73Q10.08 9.40 9.53 9.40L9.53 9.40L9.53 9.40Q8.66 9.40 7.88 10.27L7.88 10.27L7.88 10.27Q7.10 11.15 6.52 13.19L6.52 13.19L6.52 13.19Q6.16 14.52 6.16 15.48L6.16 15.48L6.16 15.48Q6.16 16.50 6.55 17.03L6.55 17.03L6.55 17.03Q6.95 17.56 7.66 17.56L7.66 17.56L7.66 17.56Q8.27 17.56 8.61 17.27L8.61 17.27L8.61 17.27Q8.95 16.98 9.14 16.27L9.14 16.27L9.27 15.79L9.27 15.79Q9.37 15.40 9.37 15.27L9.37 15.27L9.37 15.27Q9.37 15.04 9.27 14.94L9.27 14.94L9.27 14.94Q9.16 14.84 8.91 14.73L8.91 14.73L8.24 14.48L8.24 14.48Q7.79 14.30 7.79 13.84L7.79 13.84L7.79 13.84Q7.79 13.71 7.81 13.63L7.81 13.63L7.81 13.63Q7.89 13.38 8.09 13.27L8.09 13.27L8.09 13.27Q8.29 13.15 8.72 13.15L8.72 13.15L14.53 13.17L14.53 13.17Q15.16 13.17 15.16 13.57L15.16 13.57L15.16 13.57Q15.16 13.65 15.12 13.80L15.12 13.80L15.12 13.80Q15.05 14.09 14.87 14.27L14.87 14.27L14.87 14.27Q14.70 14.44 14.37 14.61L14.37 14.61L13.87 14.90L13.87 14.90Q13.68 15.02 13.59 15.12L13.59 15.12L13.59 15.12Q13.49 15.23 13.45 15.38L13.45 15.38L12.43 18.94L12.43 18.94Q12.24 19.58 12.00 19.79L12.00 19.79L12.00 19.79Q11.76 20 11.41 20L11.41 20L10.60 20L10.60 20Q10.14 20 9.84 19.81L9.84 19.81L9.84 19.81Q9.54 19.62 9.35 19.06L9.35 19.06L9.16 18.50L9.16 18.50Q7.77 20.12 5.70 20.12L5.70 20.12ZM21.44 9.82L21.44 9.82Q23.65 9.82 24.98 10.64L24.98 10.64L24.98 10.64Q26.30 11.46 26.30 13.13L26.30 13.13L26.30 13.13Q26.30 13.77 26.07 14.57L26.07 14.57L25.28 17.23L25.28 17.23Q25.27 17.31 25.27 17.42L25.27 17.42L25.27 17.42Q25.27 17.73 25.52 17.73L25.52 17.73L25.52 17.73Q25.75 17.73 25.91 17.53L25.91 17.53L25.91 17.53Q26.07 17.33 26.13 17.33L26.13 17.33L26.13 17.33Q26.23 17.33 26.29 17.46L26.29 17.46L26.29 17.46Q26.36 17.59 26.36 17.77L26.36 17.77L26.36 17.77Q26.38 18.29 25.97 18.83L25.97 18.83L25.97 18.83Q25.55 19.36 24.86 19.71L24.86 19.71L24.86 19.71Q24.17 20.06 23.34 20.06L23.34 20.06L23.34 20.06Q22.34 20.06 21.63 19.69L21.63 19.69L21.63 19.69Q20.92 19.33 20.65 18.61L20.65 18.61L20.65 18.61Q20.07 19.31 19.28 19.68L19.28 19.68L19.28 19.68Q18.49 20.06 17.59 20.06L17.59 20.06L17.59 20.06Q16.57 20.06 15.88 19.66L15.88 19.66L15.88 19.66Q15.18 19.27 14.85 18.64L14.85 18.64L14.85 18.64Q14.51 18.02 14.51 17.33L14.51 17.33L14.51 17.33Q14.51 17.02 14.57 16.73L14.57 16.73L14.57 16.73Q14.87 15.40 15.90 14.73L15.90 14.73L15.90 14.73Q16.93 14.05 18.36 14.05L18.36 14.05L18.36 14.05Q19.95 14.05 21.49 14.55L21.49 14.55L21.97 13.28L21.97 13.28Q22.23 12.48 22.23 12.03L22.23 12.03L22.23 12.03Q22.21 11.57 21.92 11.34L21.92 11.34L21.92 11.34Q21.63 11.11 21.03 11.11L21.03 11.11L21.03 11.11Q21.15 11.42 21.15 11.74L21.15 11.74L21.15 11.74Q21.15 12.46 20.61 12.98L20.61 12.98L20.61 12.98Q20.07 13.50 19.07 13.50L19.07 13.50L19.07 13.50Q18.13 13.50 17.60 13.08L17.60 13.08L17.60 13.08Q17.07 12.67 17.07 12.05L17.07 12.05L17.07 12.05Q17.07 11.09 18.15 10.46L18.15 10.46L18.15 10.46Q19.22 9.82 21.44 9.82L21.44 9.82ZM20.36 15.65L20.36 15.65Q19.82 15.65 19.48 16.06L19.48 16.06L19.48 16.06Q19.15 16.48 19.15 16.96L19.15 16.96L19.15 16.96Q19.15 17.27 19.29 17.46L19.29 17.46L19.29 17.46Q19.43 17.65 19.70 17.65L19.70 17.65L19.70 17.65Q19.95 17.65 20.25 17.45L20.25 17.45L20.25 17.45Q20.55 17.25 20.69 16.84L20.69 16.84L21.09 15.71L21.09 15.71Q20.76 15.65 20.36 15.65L20.36 15.65ZM46.62 13.55L45.45 17.34L45.45 17.34Q45.41 17.42 45.41 17.58L45.41 17.58L45.41 17.58Q45.41 17.71 45.48 17.79L45.48 17.79L45.48 17.79Q45.55 17.86 45.66 17.86L45.66 17.86L45.66 17.86Q45.89 17.86 46.06 17.66L46.06 17.66L46.06 17.66Q46.22 17.46 46.28 17.46L46.28 17.46L46.28 17.46Q46.37 17.46 46.43 17.59L46.43 17.59L46.43 17.59Q46.49 17.71 46.49 17.88L46.49 17.88L46.49 17.88Q46.51 18.44 46.12 18.97L46.12 18.97L46.12 18.97Q45.74 19.50 45.00 19.84L45.00 19.84L45.00 19.84Q44.26 20.17 43.22 20.17L43.22 20.17L43.22 20.17Q41.95 20.17 41.20 19.59L41.20 19.59L41.20 19.59Q40.45 19.00 40.43 18.02L40.43 18.02L40.43 18.02Q40.43 17.31 40.77 16.42L40.77 16.42L41.83 13.65L41.83 13.65Q41.93 13.40 41.93 13.25L41.93 13.25L41.93 13.25Q41.93 13.00 41.77 12.85L41.77 12.85L41.77 12.85Q41.60 12.71 41.37 12.71L41.37 12.71L41.37 12.71Q41.04 12.71 40.70 13.00L40.70 13.00L40.70 13.00Q40.35 13.28 40.08 13.90L40.08 13.90L39.02 17.34L39.02 17.34Q38.99 17.42 38.99 17.58L38.99 17.58L38.99 17.58Q38.99 17.71 39.05 17.79L39.05 17.79L39.05 17.79Q39.12 17.86 39.24 17.86L39.24 17.86L39.24 17.86Q39.47 17.86 39.63 17.66L39.63 17.66L39.63 17.66Q39.79 17.46 39.85 17.46L39.85 17.46L39.85 17.46Q39.95 17.46 40.01 17.59L40.01 17.59L40.01 17.59Q40.06 17.71 40.06 17.88L40.06 17.88L40.06 17.88Q40.08 18.44 39.70 18.97L39.70 18.97L39.70 18.97Q39.31 19.50 38.57 19.84L38.57 19.84L38.57 19.84Q37.83 20.17 36.79 20.17L36.79 20.17L36.79 20.17Q35.52 20.17 34.77 19.59L34.77 19.59L34.77 19.59Q34.02 19.00 34.00 18.02L34.00 18.02L34.00 18.02Q34.00 17.31 34.35 16.42L34.35 16.42L35.41 13.65L35.41 13.65Q35.50 13.40 35.50 13.25L35.50 13.25L35.50 13.25Q35.50 13.00 35.34 12.85L35.34 12.85L35.34 12.85Q35.18 12.71 34.94 12.71L34.94 12.71L34.94 12.71Q34.62 12.71 34.27 12.99L34.27 12.99L34.27 12.99Q33.92 13.27 33.69 13.88L33.69 13.88L32.42 18.00L32.42 18.00Q32.35 18.21 32.35 18.40L32.35 18.40L32.35 18.40Q32.35 18.63 32.44 18.78L32.44 18.78L32.44 18.78Q32.54 18.92 32.71 19.08L32.71 19.08L32.71 19.08Q32.85 19.19 32.90 19.29L32.90 19.29L32.90 19.29Q32.96 19.38 32.92 19.52L32.92 19.52L32.92 19.52Q32.85 19.77 32.56 19.88L32.56 19.88L32.56 19.88Q32.27 20 31.65 20L31.65 20L27.27 20L27.27 20Q26.77 20 26.54 19.84L26.54 19.84L26.54 19.84Q26.32 19.67 26.38 19.40L26.38 19.40L26.38 19.40Q26.46 19.17 26.79 19.00L26.79 19.00L26.79 19.00Q27.07 18.85 27.27 18.63L27.27 18.63L27.27 18.63Q27.46 18.42 27.59 17.96L27.59 17.96L29.31 12.40L29.31 12.40Q29.34 12.30 29.34 12.13L29.34 12.13L29.34 12.13Q29.34 11.92 29.26 11.80L29.26 11.80L29.26 11.80Q29.17 11.69 28.98 11.51L28.98 11.51L28.98 11.51Q28.79 11.36 28.71 11.24L28.71 11.24L28.71 11.24Q28.63 11.13 28.69 10.94L28.69 10.94L28.69 10.94Q28.81 10.49 29.90 10.16L29.90 10.16L29.90 10.16Q31.00 9.82 32.19 9.82L32.19 9.82L32.19 9.82Q33.14 9.82 33.68 10.34L33.68 10.34L33.68 10.34Q34.23 10.86 34.21 11.76L34.21 11.76L34.21 11.76Q35.00 10.67 35.88 10.24L35.88 10.24L35.88 10.24Q36.75 9.82 37.77 9.82L37.77 9.82L37.77 9.82Q38.89 9.82 39.59 10.47L39.59 10.47L39.59 10.47Q40.29 11.11 40.37 12.15L40.37 12.15L40.37 12.15Q41.20 10.84 42.14 10.33L42.14 10.33L42.14 10.33Q43.08 9.82 44.20 9.82L44.20 9.82L44.20 9.82Q45.37 9.82 46.10 10.53L46.10 10.53L46.10 10.53Q46.82 11.24 46.82 12.38L46.82 12.38L46.82 12.38Q46.82 12.98 46.62 13.55L46.62 13.55ZM53.84 9.72L53.84 9.72Q56.28 9.72 57.38 10.50L57.38 10.50L57.38 10.50Q58.48 11.28 58.48 12.50L58.48 12.50L58.48 12.50Q58.48 12.86 58.40 13.17L58.40 13.17L58.40 13.17Q58.11 14.44 56.79 14.99L56.79 14.99L56.79 14.99Q55.48 15.54 53.69 15.54L53.69 15.54L53.69 15.54Q52.78 15.54 51.99 15.42L51.99 15.42L51.99 15.42Q51.97 16.42 52.53 16.82L52.53 16.82L52.53 16.82Q53.09 17.23 54.09 17.23L54.09 17.23L54.09 17.23Q54.55 17.23 54.98 17.12L54.98 17.12L54.98 17.12Q55.40 17.02 56.05 16.81L56.05 16.81L56.05 16.81Q56.59 16.61 56.78 16.61L56.78 16.61L56.78 16.61Q57.00 16.61 57.00 16.86L57.00 16.86L57.00 16.86Q57.02 17.54 56.50 18.28L56.50 18.28L56.50 18.28Q55.98 19.02 54.96 19.54L54.96 19.54L54.96 19.54Q53.94 20.06 52.49 20.06L52.49 20.06L52.49 20.06Q50.36 20.06 48.99 18.98L48.99 18.98L48.99 18.98Q47.63 17.90 47.63 15.84L47.63 15.84L47.63 15.84Q47.63 15.27 47.78 14.50L47.78 14.50L47.78 14.50Q48.26 12.13 49.89 10.93L49.89 10.93L49.89 10.93Q51.51 9.72 53.84 9.72L53.84 9.72ZM52.13 14.27L52.13 14.27Q52.20 14.28 52.34 14.28L52.34 14.28L52.34 14.28Q53.15 14.28 53.57 13.53L53.57 13.53L53.57 13.53Q53.99 12.78 53.98 11.86L53.98 11.86L53.98 11.86Q53.96 11.32 53.67 11.32L53.67 11.32L53.67 11.32Q53.46 11.32 53.17 11.66L53.17 11.66L53.17 11.66Q52.88 12.00 52.60 12.67L52.60 12.67L52.60 12.67Q52.32 13.34 52.13 14.27L52.13 14.27ZM64.42 9.65L64.42 9.65Q66.02 9.65 67.18 9.94L67.18 9.94L67.18 9.94Q68.35 10.22 68.97 10.74L68.97 10.74L68.97 10.74Q69.60 11.26 69.60 11.92L69.60 11.92L69.60 11.92Q69.60 12.59 69.07 13.01L69.07 13.01L69.07 13.01Q68.54 13.44 67.60 13.44L67.60 13.44L67.60 13.44Q66.64 13.44 65.97 12.96L65.97 12.96L65.97 12.96Q65.31 12.48 65.31 11.74L65.31 11.74L65.31 11.74Q65.31 11.49 65.39 11.26L65.39 11.26L65.39 11.26Q65.04 11.17 64.77 11.17L64.77 11.17L64.77 11.17Q64.29 11.17 63.97 11.40L63.97 11.40L63.97 11.40Q63.65 11.63 63.67 12.05L63.67 12.05L63.67 12.05Q63.67 12.55 64.17 12.90L64.17 12.90L64.17 12.90Q64.67 13.25 65.79 13.77L65.79 13.77L65.79 13.77Q66.75 14.19 67.38 14.54L67.38 14.54L67.38 14.54Q68.00 14.90 68.44 15.44L68.44 15.44L68.44 15.44Q68.87 15.98 68.87 16.71L68.87 16.71L68.87 16.71Q68.87 16.86 68.79 17.29L68.79 17.29L68.79 17.29Q68.48 18.58 67.08 19.33L67.08 19.33L67.08 19.33Q65.67 20.08 63.38 20.08L63.38 20.08L63.38 20.08Q60.81 20.08 59.30 19.38L59.30 19.38L59.30 19.38Q57.79 18.69 57.79 17.48L57.79 17.48L57.79 17.48Q57.79 16.65 58.29 16.23L58.29 16.23L58.29 16.23Q58.79 15.81 59.61 15.81L59.61 15.81L59.61 15.81Q60.58 15.81 61.26 16.40L61.26 16.40L61.26 16.40Q61.94 17.00 61.94 17.92L61.94 17.92L61.94 17.92Q61.94 18.17 61.88 18.44L61.88 18.44L61.88 18.44Q62.35 18.56 62.77 18.56L62.77 18.56L62.77 18.56Q63.27 18.56 63.60 18.29L63.60 18.29L63.60 18.29Q63.92 18.02 63.92 17.54L63.92 17.54L63.92 17.54Q63.90 17.09 63.48 16.78L63.48 16.78L63.48 16.78Q63.06 16.46 62.13 16.02L62.13 16.02L62.13 16.02Q61.27 15.61 60.71 15.26L60.71 15.26L60.71 15.26Q60.15 14.90 59.76 14.36L59.76 14.36L59.76 14.36Q59.36 13.82 59.36 13.09L59.36 13.09L59.36 13.09Q59.36 11.51 60.68 10.58L60.68 10.58L60.68 10.58Q62.00 9.65 64.42 9.65L64.42 9.65ZM75.20 20.12L75.20 20.12Q73.91 20.12 72.86 19.55L72.86 19.55L72.86 19.55Q71.81 18.98 71.20 17.87L71.20 17.87L71.20 17.87Q70.58 16.77 70.58 15.23L70.58 15.23L70.58 15.23Q70.58 14.05 70.99 12.61L70.99 12.61L70.99 12.61Q71.87 9.53 73.77 8.26L73.77 8.26L73.77 8.26Q75.66 6.99 77.82 6.99L77.82 6.99L77.82 6.99Q79.78 6.99 81.36 8.42L81.36 8.42L81.93 7.86L81.93 7.86Q82.42 7.45 82.76 7.30L82.76 7.30L82.76 7.30Q83.11 7.15 83.57 7.15L83.57 7.15L83.57 7.15Q84.07 7.15 84.38 7.39L84.38 7.39L84.38 7.39Q84.69 7.63 84.69 8.03L84.69 8.03L84.69 8.03Q84.69 8.19 84.63 8.40L84.63 8.40L83.94 10.82L83.94 10.82Q83.74 11.44 83.48 11.69L83.48 11.69L83.48 11.69Q83.22 11.94 82.78 11.94L82.78 11.94L82.78 11.94Q82.32 11.94 81.96 11.71L81.96 11.71L81.96 11.71Q81.61 11.48 81.15 10.88L81.15 10.88L81.15 10.88Q80.53 10.07 80.06 9.73L80.06 9.73L80.06 9.73Q79.59 9.40 79.03 9.40L79.03 9.40L79.03 9.40Q78.16 9.40 77.38 10.27L77.38 10.27L77.38 10.27Q76.60 11.15 76.03 13.19L76.03 13.19L76.03 13.19Q75.66 14.52 75.66 15.48L75.66 15.48L75.66 15.48Q75.66 16.50 76.06 17.03L76.06 17.03L76.06 17.03Q76.45 17.56 77.16 17.56L77.16 17.56L77.16 17.56Q77.78 17.56 78.11 17.27L78.11 17.27L78.11 17.27Q78.45 16.98 78.64 16.27L78.64 16.27L78.78 15.79L78.78 15.79Q78.87 15.40 78.87 15.27L78.87 15.27L78.87 15.27Q78.87 15.04 78.77 14.94L78.77 14.94L78.77 14.94Q78.66 14.84 78.41 14.73L78.41 14.73L77.74 14.48L77.74 14.48Q77.30 14.30 77.30 13.84L77.30 13.84L77.30 13.84Q77.30 13.71 77.32 13.63L77.32 13.63L77.32 13.63Q77.39 13.38 77.60 13.27L77.60 13.27L77.60 13.27Q77.80 13.15 78.22 13.15L78.22 13.15L84.03 13.17L84.03 13.17Q84.67 13.17 84.67 13.57L84.67 13.57L84.67 13.57Q84.67 13.65 84.63 13.80L84.63 13.80L84.63 13.80Q84.55 14.09 84.38 14.27L84.38 14.27L84.38 14.27Q84.20 14.44 83.88 14.61L83.88 14.61L83.38 14.90L83.38 14.90Q83.19 15.02 83.09 15.12L83.09 15.12L83.09 15.12Q82.99 15.23 82.95 15.38L82.95 15.38L81.93 18.94L81.93 18.94Q81.74 19.58 81.50 19.79L81.50 19.79L81.50 19.79Q81.26 20 80.91 20L80.91 20L80.11 20L80.11 20Q79.64 20 79.35 19.81L79.35 19.81L79.35 19.81Q79.05 19.62 78.86 19.06L78.86 19.06L78.66 18.50L78.66 18.50Q77.28 20.12 75.20 20.12L75.20 20.12ZM91.52 9.82L91.52 9.82Q94.13 9.82 95.38 10.88L95.38 10.88L95.38 10.88Q96.62 11.94 96.62 13.65L96.62 13.65L96.62 13.65Q96.62 14.23 96.46 14.94L96.46 14.94L96.46 14.94Q96.10 16.52 95.10 17.70L95.10 17.70L95.10 17.70Q94.10 18.88 92.64 19.53L92.64 19.53L92.64 19.53Q91.19 20.17 89.50 20.17L89.50 20.17L89.50 20.17Q86.82 20.17 85.54 19.11L85.54 19.11L85.54 19.11Q84.26 18.04 84.26 16.27L84.26 16.27L84.26 16.27Q84.26 15.67 84.42 14.94L84.42 14.94L84.42 14.94Q84.78 13.44 85.81 12.27L85.81 12.27L85.81 12.27Q86.84 11.11 88.33 10.47L88.33 10.47L88.33 10.47Q89.82 9.82 91.52 9.82L91.52 9.82ZM91.46 11.53L91.46 11.53Q91.06 11.53 90.60 12.25L90.60 12.25L90.60 12.25Q90.15 12.98 89.54 14.98L89.54 14.98L89.54 14.98Q88.92 16.98 88.92 17.79L88.92 17.79L88.92 17.79Q88.92 18.21 89.05 18.35L89.05 18.35L89.05 18.35Q89.19 18.50 89.42 18.50L89.42 18.50L89.42 18.50Q89.82 18.54 90.26 17.81L90.26 17.81L90.26 17.81Q90.69 17.08 91.34 14.96L91.34 14.96L91.34 14.96Q91.94 13.09 91.94 12.25L91.94 12.25L91.94 12.25Q91.94 11.84 91.82 11.69L91.82 11.69L91.82 11.69Q91.69 11.53 91.46 11.53L91.46 11.53ZM104.14 9.82L104.14 9.82Q106.76 9.82 108.00 10.88L108.00 10.88L108.00 10.88Q109.24 11.94 109.24 13.65L109.24 13.65L109.24 13.65Q109.24 14.23 109.09 14.94L109.09 14.94L109.09 14.94Q108.72 16.52 107.72 17.70L107.72 17.70L107.72 17.70Q106.72 18.88 105.27 19.53L105.27 19.53L105.27 19.53Q103.81 20.17 102.12 20.17L102.12 20.17L102.12 20.17Q99.44 20.17 98.17 19.11L98.17 19.11L98.17 19.11Q96.89 18.04 96.89 16.27L96.89 16.27L96.89 16.27Q96.89 15.67 97.04 14.94L97.04 14.94L97.04 14.94Q97.41 13.44 98.43 12.27L98.43 12.27L98.43 12.27Q99.46 11.11 100.96 10.47L100.96 10.47L100.96 10.47Q102.45 9.82 104.14 9.82L104.14 9.82ZM104.08 11.53L104.08 11.53Q103.68 11.53 103.23 12.25L103.23 12.25L103.23 12.25Q102.77 12.98 102.16 14.98L102.16 14.98L102.16 14.98Q101.54 16.98 101.54 17.79L101.54 17.79L101.54 17.79Q101.54 18.21 101.68 18.35L101.68 18.35L101.68 18.35Q101.81 18.50 102.04 18.50L102.04 18.50L102.04 18.50Q102.45 18.54 102.88 17.81L102.88 17.81L102.88 17.81Q103.31 17.08 103.97 14.96L103.97 14.96L103.97 14.96Q104.56 13.09 104.56 12.25L104.56 12.25L104.56 12.25Q104.56 11.84 104.44 11.69L104.44 11.69L104.44 11.69Q104.31 11.53 104.08 11.53L104.08 11.53ZM120.07 17.23L120.07 17.23Q120.03 17.38 120.03 17.44L120.03 17.44L120.03 17.44Q120.03 17.58 120.11 17.65L120.11 17.65L120.11 17.65Q120.19 17.73 120.30 17.73L120.30 17.73L120.30 17.73Q120.53 17.73 120.70 17.53L120.70 17.53L120.70 17.53Q120.86 17.33 120.92 17.33L120.92 17.33L120.92 17.33Q121.02 17.33 121.07 17.46L121.07 17.46L121.07 17.46Q121.13 17.59 121.13 17.77L121.13 17.77L121.13 17.77Q121.15 18.29 120.74 18.83L120.74 18.83L120.74 18.83Q120.32 19.36 119.63 19.71L119.63 19.71L119.63 19.71Q118.94 20.06 118.13 20.06L118.13 20.06L118.13 20.06Q117.17 20.06 116.46 19.69L116.46 19.69L116.46 19.69Q115.74 19.33 115.47 18.73L115.47 18.73L115.47 18.73Q114.95 19.40 114.28 19.73L114.28 19.73L114.28 19.73Q113.61 20.06 112.86 20.06L112.86 20.06L112.86 20.06Q111.97 20.06 111.21 19.62L111.21 19.62L111.21 19.62Q110.45 19.17 110.00 18.35L110.00 18.35L110.00 18.35Q109.55 17.54 109.55 16.50L109.55 16.50L109.55 16.50Q109.55 14.75 110.21 13.20L110.21 13.20L110.21 13.20Q110.87 11.65 112.07 10.70L112.07 10.70L112.07 10.70Q113.26 9.74 114.78 9.74L114.78 9.74L114.78 9.74Q115.61 9.74 116.20 9.94L116.20 9.94L116.20 9.94Q116.78 10.13 117.26 10.51L117.26 10.51L117.92 8.36L117.92 8.36Q117.98 8.19 117.98 8.07L117.98 8.07L117.98 8.07Q117.98 7.86 117.87 7.72L117.87 7.72L117.87 7.72Q117.76 7.59 117.59 7.45L117.59 7.45L117.59 7.45Q117.40 7.30 117.31 7.18L117.31 7.18L117.31 7.18Q117.22 7.07 117.28 6.88L117.28 6.88L117.28 6.88Q117.40 6.43 118.49 6.11L118.49 6.11L118.49 6.11Q119.59 5.78 120.78 5.78L120.78 5.78L120.78 5.78Q121.90 5.78 122.43 6.20L122.43 6.20L122.43 6.20Q122.96 6.63 122.96 7.36L122.96 7.36L122.96 7.36Q122.96 7.78 122.82 8.19L122.82 8.19L120.07 17.23ZM116.86 11.82L116.86 11.82Q116.55 11.55 116.19 11.55L116.19 11.55L116.19 11.55Q115.63 11.55 115.09 12.38L115.09 12.38L115.09 12.38Q114.55 13.21 114.22 14.38L114.22 14.38L114.22 14.38Q113.90 15.55 113.92 16.50L113.92 16.50L113.92 16.50Q113.92 17.56 114.61 17.56L114.61 17.56L114.61 17.56Q114.86 17.56 115.03 17.35L115.03 17.35L115.03 17.35Q115.20 17.15 115.36 16.69L115.36 16.69L116.86 11.82ZM128.25 9.65L128.25 9.65Q129.85 9.65 131.01 9.94L131.01 9.94L131.01 9.94Q132.18 10.22 132.80 10.74L132.80 10.74L132.80 10.74Q133.43 11.26 133.43 11.92L133.43 11.92L133.43 11.92Q133.43 12.59 132.90 13.01L132.90 13.01L132.90 13.01Q132.37 13.44 131.43 13.44L131.43 13.44L131.43 13.44Q130.46 13.44 129.80 12.96L129.80 12.96L129.80 12.96Q129.14 12.48 129.14 11.74L129.14 11.74L129.14 11.74Q129.14 11.49 129.21 11.26L129.21 11.26L129.21 11.26Q128.87 11.17 128.60 11.17L128.60 11.17L128.60 11.17Q128.12 11.17 127.80 11.40L127.80 11.40L127.80 11.40Q127.48 11.63 127.50 12.05L127.50 12.05L127.50 12.05Q127.50 12.55 128.00 12.90L128.00 12.90L128.00 12.90Q128.50 13.25 129.62 13.77L129.62 13.77L129.62 13.77Q130.58 14.19 131.20 14.54L131.20 14.54L131.20 14.54Q131.83 14.90 132.26 15.44L132.26 15.44L132.26 15.44Q132.70 15.98 132.70 16.71L132.70 16.71L132.70 16.71Q132.70 16.86 132.62 17.29L132.62 17.29L132.62 17.29Q132.31 18.58 130.91 19.33L130.91 19.33L130.91 19.33Q129.50 20.08 127.21 20.08L127.21 20.08L127.21 20.08Q124.63 20.08 123.12 19.38L123.12 19.38L123.12 19.38Q121.61 18.69 121.61 17.48L121.61 17.48L121.61 17.48Q121.61 16.65 122.11 16.23L122.11 16.23L122.11 16.23Q122.61 15.81 123.44 15.81L123.44 15.81L123.44 15.81Q124.40 15.81 125.09 16.40L125.09 16.40L125.09 16.40Q125.77 17.00 125.77 17.92L125.77 17.92L125.77 17.92Q125.77 18.17 125.71 18.44L125.71 18.44L125.71 18.44Q126.17 18.56 126.60 18.56L126.60 18.56L126.60 18.56Q127.10 18.56 127.42 18.29L127.42 18.29L127.42 18.29Q127.75 18.02 127.75 17.54L127.75 17.54L127.75 17.54Q127.73 17.09 127.31 16.78L127.31 16.78L127.31 16.78Q126.88 16.46 125.96 16.02L125.96 16.02L125.96 16.02Q125.10 15.61 124.54 15.26L124.54 15.26L124.54 15.26Q123.98 14.90 123.58 14.36L123.58 14.36L123.58 14.36Q123.19 13.82 123.19 13.09L123.19 13.09L123.19 13.09Q123.19 11.51 124.51 10.58L124.51 10.58L124.51 10.58Q125.83 9.65 128.25 9.65L128.25 9.65Z" fill="#C80708" stroke="#C80708" stroke-width="3" stroke-linejoin="round" stroke-miterlimit="2" opacity="1" style="filter:url(#shadow_2)"/><path transform="translate(6,0)rotate(0)" d="M5.70 20.12L5.70 20.12Q4.41 20.12 3.36 19.55L3.36 19.55L3.36 19.55Q2.31 18.98 1.69 17.87L1.69 17.87L1.69 17.87Q1.08 16.77 1.08 15.23L1.08 15.23L1.08 15.23Q1.08 14.05 1.48 12.61L1.48 12.61L1.48 12.61Q2.37 9.53 4.26 8.26L4.26 8.26L4.26 8.26Q6.16 6.99 8.31 6.99L8.31 6.99L8.31 6.99Q10.28 6.99 11.85 8.42L11.85 8.42L12.43 7.86L12.43 7.86Q12.91 7.45 13.26 7.30L13.26 7.30L13.26 7.30Q13.60 7.15 14.07 7.15L14.07 7.15L14.07 7.15Q14.57 7.15 14.87 7.39L14.87 7.39L14.87 7.39Q15.18 7.63 15.18 8.03L15.18 8.03L15.18 8.03Q15.18 8.19 15.12 8.40L15.12 8.40L14.43 10.82L14.43 10.82Q14.24 11.44 13.98 11.69L13.98 11.69L13.98 11.69Q13.72 11.94 13.28 11.94L13.28 11.94L13.28 11.94Q12.82 11.94 12.46 11.71L12.46 11.71L12.46 11.71Q12.10 11.48 11.64 10.88L11.64 10.88L11.64 10.88Q11.03 10.07 10.55 9.73L10.55 9.73L10.55 9.73Q10.08 9.40 9.53 9.40L9.53 9.40L9.53 9.40Q8.66 9.40 7.88 10.27L7.88 10.27L7.88 10.27Q7.10 11.15 6.52 13.19L6.52 13.19L6.52 13.19Q6.16 14.52 6.16 15.48L6.16 15.48L6.16 15.48Q6.16 16.50 6.55 17.03L6.55 17.03L6.55 17.03Q6.95 17.56 7.66 17.56L7.66 17.56L7.66 17.56Q8.27 17.56 8.61 17.27L8.61 17.27L8.61 17.27Q8.95 16.98 9.14 16.27L9.14 16.27L9.27 15.79L9.27 15.79Q9.37 15.40 9.37 15.27L9.37 15.27L9.37 15.27Q9.37 15.04 9.27 14.94L9.27 14.94L9.27 14.94Q9.16 14.84 8.91 14.73L8.91 14.73L8.24 14.48L8.24 14.48Q7.79 14.30 7.79 13.84L7.79 13.84L7.79 13.84Q7.79 13.71 7.81 13.63L7.81 13.63L7.81 13.63Q7.89 13.38 8.09 13.27L8.09 13.27L8.09 13.27Q8.29 13.15 8.72 13.15L8.72 13.15L14.53 13.17L14.53 13.17Q15.16 13.17 15.16 13.57L15.16 13.57L15.16 13.57Q15.16 13.65 15.12 13.80L15.12 13.80L15.12 13.80Q15.05 14.09 14.87 14.27L14.87 14.27L14.87 14.27Q14.70 14.44 14.37 14.61L14.37 14.61L13.87 14.90L13.87 14.90Q13.68 15.02 13.59 15.12L13.59 15.12L13.59 15.12Q13.49 15.23 13.45 15.38L13.45 15.38L12.43 18.94L12.43 18.94Q12.24 19.58 12.00 19.79L12.00 19.79L12.00 19.79Q11.76 20 11.41 20L11.41 20L10.60 20L10.60 20Q10.14 20 9.84 19.81L9.84 19.81L9.84 19.81Q9.54 19.62 9.35 19.06L9.35 19.06L9.16 18.50L9.16 18.50Q7.77 20.12 5.70 20.12L5.70 20.12ZM21.44 9.82L21.44 9.82Q23.65 9.82 24.98 10.64L24.98 10.64L24.98 10.64Q26.30 11.46 26.30 13.13L26.30 13.13L26.30 13.13Q26.30 13.77 26.07 14.57L26.07 14.57L25.28 17.23L25.28 17.23Q25.27 17.31 25.27 17.42L25.27 17.42L25.27 17.42Q25.27 17.73 25.52 17.73L25.52 17.73L25.52 17.73Q25.75 17.73 25.91 17.53L25.91 17.53L25.91 17.53Q26.07 17.33 26.13 17.33L26.13 17.33L26.13 17.33Q26.23 17.33 26.29 17.46L26.29 17.46L26.29 17.46Q26.36 17.59 26.36 17.77L26.36 17.77L26.36 17.77Q26.38 18.29 25.97 18.83L25.97 18.83L25.97 18.83Q25.55 19.36 24.86 19.71L24.86 19.71L24.86 19.71Q24.17 20.06 23.34 20.06L23.34 20.06L23.34 20.06Q22.34 20.06 21.63 19.69L21.63 19.69L21.63 19.69Q20.92 19.33 20.65 18.61L20.65 18.61L20.65 18.61Q20.07 19.31 19.28 19.68L19.28 19.68L19.28 19.68Q18.49 20.06 17.59 20.06L17.59 20.06L17.59 20.06Q16.57 20.06 15.88 19.66L15.88 19.66L15.88 19.66Q15.18 19.27 14.85 18.64L14.85 18.64L14.85 18.64Q14.51 18.02 14.51 17.33L14.51 17.33L14.51 17.33Q14.51 17.02 14.57 16.73L14.57 16.73L14.57 16.73Q14.87 15.40 15.90 14.73L15.90 14.73L15.90 14.73Q16.93 14.05 18.36 14.05L18.36 14.05L18.36 14.05Q19.95 14.05 21.49 14.55L21.49 14.55L21.97 13.28L21.97 13.28Q22.23 12.48 22.23 12.03L22.23 12.03L22.23 12.03Q22.21 11.57 21.92 11.34L21.92 11.34L21.92 11.34Q21.63 11.11 21.03 11.11L21.03 11.11L21.03 11.11Q21.15 11.42 21.15 11.74L21.15 11.74L21.15 11.74Q21.15 12.46 20.61 12.98L20.61 12.98L20.61 12.98Q20.07 13.50 19.07 13.50L19.07 13.50L19.07 13.50Q18.13 13.50 17.60 13.08L17.60 13.08L17.60 13.08Q17.07 12.67 17.07 12.05L17.07 12.05L17.07 12.05Q17.07 11.09 18.15 10.46L18.15 10.46L18.15 10.46Q19.22 9.82 21.44 9.82L21.44 9.82ZM20.36 15.65L20.36 15.65Q19.82 15.65 19.48 16.06L19.48 16.06L19.48 16.06Q19.15 16.48 19.15 16.96L19.15 16.96L19.15 16.96Q19.15 17.27 19.29 17.46L19.29 17.46L19.29 17.46Q19.43 17.65 19.70 17.65L19.70 17.65L19.70 17.65Q19.95 17.65 20.25 17.45L20.25 17.45L20.25 17.45Q20.55 17.25 20.69 16.84L20.69 16.84L21.09 15.71L21.09 15.71Q20.76 15.65 20.36 15.65L20.36 15.65ZM46.62 13.55L45.45 17.34L45.45 17.34Q45.41 17.42 45.41 17.58L45.41 17.58L45.41 17.58Q45.41 17.71 45.48 17.79L45.48 17.79L45.48 17.79Q45.55 17.86 45.66 17.86L45.66 17.86L45.66 17.86Q45.89 17.86 46.06 17.66L46.06 17.66L46.06 17.66Q46.22 17.46 46.28 17.46L46.28 17.46L46.28 17.46Q46.37 17.46 46.43 17.59L46.43 17.59L46.43 17.59Q46.49 17.71 46.49 17.88L46.49 17.88L46.49 17.88Q46.51 18.44 46.12 18.97L46.12 18.97L46.12 18.97Q45.74 19.50 45.00 19.84L45.00 19.84L45.00 19.84Q44.26 20.17 43.22 20.17L43.22 20.17L43.22 20.17Q41.95 20.17 41.20 19.59L41.20 19.59L41.20 19.59Q40.45 19.00 40.43 18.02L40.43 18.02L40.43 18.02Q40.43 17.31 40.77 16.42L40.77 16.42L41.83 13.65L41.83 13.65Q41.93 13.40 41.93 13.25L41.93 13.25L41.93 13.25Q41.93 13.00 41.77 12.85L41.77 12.85L41.77 12.85Q41.60 12.71 41.37 12.71L41.37 12.71L41.37 12.71Q41.04 12.71 40.70 13.00L40.70 13.00L40.70 13.00Q40.35 13.28 40.08 13.90L40.08 13.90L39.02 17.34L39.02 17.34Q38.99 17.42 38.99 17.58L38.99 17.58L38.99 17.58Q38.99 17.71 39.05 17.79L39.05 17.79L39.05 17.79Q39.12 17.86 39.24 17.86L39.24 17.86L39.24 17.86Q39.47 17.86 39.63 17.66L39.63 17.66L39.63 17.66Q39.79 17.46 39.85 17.46L39.85 17.46L39.85 17.46Q39.95 17.46 40.01 17.59L40.01 17.59L40.01 17.59Q40.06 17.71 40.06 17.88L40.06 17.88L40.06 17.88Q40.08 18.44 39.70 18.97L39.70 18.97L39.70 18.97Q39.31 19.50 38.57 19.84L38.57 19.84L38.57 19.84Q37.83 20.17 36.79 20.17L36.79 20.17L36.79 20.17Q35.52 20.17 34.77 19.59L34.77 19.59L34.77 19.59Q34.02 19.00 34.00 18.02L34.00 18.02L34.00 18.02Q34.00 17.31 34.35 16.42L34.35 16.42L35.41 13.65L35.41 13.65Q35.50 13.40 35.50 13.25L35.50 13.25L35.50 13.25Q35.50 13.00 35.34 12.85L35.34 12.85L35.34 12.85Q35.18 12.71 34.94 12.71L34.94 12.71L34.94 12.71Q34.62 12.71 34.27 12.99L34.27 12.99L34.27 12.99Q33.92 13.27 33.69 13.88L33.69 13.88L32.42 18.00L32.42 18.00Q32.35 18.21 32.35 18.40L32.35 18.40L32.35 18.40Q32.35 18.63 32.44 18.78L32.44 18.78L32.44 18.78Q32.54 18.92 32.71 19.08L32.71 19.08L32.71 19.08Q32.85 19.19 32.90 19.29L32.90 19.29L32.90 19.29Q32.96 19.38 32.92 19.52L32.92 19.52L32.92 19.52Q32.85 19.77 32.56 19.88L32.56 19.88L32.56 19.88Q32.27 20 31.65 20L31.65 20L27.27 20L27.27 20Q26.77 20 26.54 19.84L26.54 19.84L26.54 19.84Q26.32 19.67 26.38 19.40L26.38 19.40L26.38 19.40Q26.46 19.17 26.79 19.00L26.79 19.00L26.79 19.00Q27.07 18.85 27.27 18.63L27.27 18.63L27.27 18.63Q27.46 18.42 27.59 17.96L27.59 17.96L29.31 12.40L29.31 12.40Q29.34 12.30 29.34 12.13L29.34 12.13L29.34 12.13Q29.34 11.92 29.26 11.80L29.26 11.80L29.26 11.80Q29.17 11.69 28.98 11.51L28.98 11.51L28.98 11.51Q28.79 11.36 28.71 11.24L28.71 11.24L28.71 11.24Q28.63 11.13 28.69 10.94L28.69 10.94L28.69 10.94Q28.81 10.49 29.90 10.16L29.90 10.16L29.90 10.16Q31.00 9.82 32.19 9.82L32.19 9.82L32.19 9.82Q33.14 9.82 33.68 10.34L33.68 10.34L33.68 10.34Q34.23 10.86 34.21 11.76L34.21 11.76L34.21 11.76Q35.00 10.67 35.88 10.24L35.88 10.24L35.88 10.24Q36.75 9.82 37.77 9.82L37.77 9.82L37.77 9.82Q38.89 9.82 39.59 10.47L39.59 10.47L39.59 10.47Q40.29 11.11 40.37 12.15L40.37 12.15L40.37 12.15Q41.20 10.84 42.14 10.33L42.14 10.33L42.14 10.33Q43.08 9.82 44.20 9.82L44.20 9.82L44.20 9.82Q45.37 9.82 46.10 10.53L46.10 10.53L46.10 10.53Q46.82 11.24 46.82 12.38L46.82 12.38L46.82 12.38Q46.82 12.98 46.62 13.55L46.62 13.55ZM53.84 9.72L53.84 9.72Q56.28 9.72 57.38 10.50L57.38 10.50L57.38 10.50Q58.48 11.28 58.48 12.50L58.48 12.50L58.48 12.50Q58.48 12.86 58.40 13.17L58.40 13.17L58.40 13.17Q58.11 14.44 56.79 14.99L56.79 14.99L56.79 14.99Q55.48 15.54 53.69 15.54L53.69 15.54L53.69 15.54Q52.78 15.54 51.99 15.42L51.99 15.42L51.99 15.42Q51.97 16.42 52.53 16.82L52.53 16.82L52.53 16.82Q53.09 17.23 54.09 17.23L54.09 17.23L54.09 17.23Q54.55 17.23 54.98 17.12L54.98 17.12L54.98 17.12Q55.40 17.02 56.05 16.81L56.05 16.81L56.05 16.81Q56.59 16.61 56.78 16.61L56.78 16.61L56.78 16.61Q57.00 16.61 57.00 16.86L57.00 16.86L57.00 16.86Q57.02 17.54 56.50 18.28L56.50 18.28L56.50 18.28Q55.98 19.02 54.96 19.54L54.96 19.54L54.96 19.54Q53.94 20.06 52.49 20.06L52.49 20.06L52.49 20.06Q50.36 20.06 48.99 18.98L48.99 18.98L48.99 18.98Q47.63 17.90 47.63 15.84L47.63 15.84L47.63 15.84Q47.63 15.27 47.78 14.50L47.78 14.50L47.78 14.50Q48.26 12.13 49.89 10.93L49.89 10.93L49.89 10.93Q51.51 9.72 53.84 9.72L53.84 9.72ZM52.13 14.27L52.13 14.27Q52.20 14.28 52.34 14.28L52.34 14.28L52.34 14.28Q53.15 14.28 53.57 13.53L53.57 13.53L53.57 13.53Q53.99 12.78 53.98 11.86L53.98 11.86L53.98 11.86Q53.96 11.32 53.67 11.32L53.67 11.32L53.67 11.32Q53.46 11.32 53.17 11.66L53.17 11.66L53.17 11.66Q52.88 12.00 52.60 12.67L52.60 12.67L52.60 12.67Q52.32 13.34 52.13 14.27L52.13 14.27ZM64.42 9.65L64.42 9.65Q66.02 9.65 67.18 9.94L67.18 9.94L67.18 9.94Q68.35 10.22 68.97 10.74L68.97 10.74L68.97 10.74Q69.60 11.26 69.60 11.92L69.60 11.92L69.60 11.92Q69.60 12.59 69.07 13.01L69.07 13.01L69.07 13.01Q68.54 13.44 67.60 13.44L67.60 13.44L67.60 13.44Q66.64 13.44 65.97 12.96L65.97 12.96L65.97 12.96Q65.31 12.48 65.31 11.74L65.31 11.74L65.31 11.74Q65.31 11.49 65.39 11.26L65.39 11.26L65.39 11.26Q65.04 11.17 64.77 11.17L64.77 11.17L64.77 11.17Q64.29 11.17 63.97 11.40L63.97 11.40L63.97 11.40Q63.65 11.63 63.67 12.05L63.67 12.05L63.67 12.05Q63.67 12.55 64.17 12.90L64.17 12.90L64.17 12.90Q64.67 13.25 65.79 13.77L65.79 13.77L65.79 13.77Q66.75 14.19 67.38 14.54L67.38 14.54L67.38 14.54Q68.00 14.90 68.44 15.44L68.44 15.44L68.44 15.44Q68.87 15.98 68.87 16.71L68.87 16.71L68.87 16.71Q68.87 16.86 68.79 17.29L68.79 17.29L68.79 17.29Q68.48 18.58 67.08 19.33L67.08 19.33L67.08 19.33Q65.67 20.08 63.38 20.08L63.38 20.08L63.38 20.08Q60.81 20.08 59.30 19.38L59.30 19.38L59.30 19.38Q57.79 18.69 57.79 17.48L57.79 17.48L57.79 17.48Q57.79 16.65 58.29 16.23L58.29 16.23L58.29 16.23Q58.79 15.81 59.61 15.81L59.61 15.81L59.61 15.81Q60.58 15.81 61.26 16.40L61.26 16.40L61.26 16.40Q61.94 17.00 61.94 17.92L61.94 17.92L61.94 17.92Q61.94 18.17 61.88 18.44L61.88 18.44L61.88 18.44Q62.35 18.56 62.77 18.56L62.77 18.56L62.77 18.56Q63.27 18.56 63.60 18.29L63.60 18.29L63.60 18.29Q63.92 18.02 63.92 17.54L63.92 17.54L63.92 17.54Q63.90 17.09 63.48 16.78L63.48 16.78L63.48 16.78Q63.06 16.46 62.13 16.02L62.13 16.02L62.13 16.02Q61.27 15.61 60.71 15.26L60.71 15.26L60.71 15.26Q60.15 14.90 59.76 14.36L59.76 14.36L59.76 14.36Q59.36 13.82 59.36 13.09L59.36 13.09L59.36 13.09Q59.36 11.51 60.68 10.58L60.68 10.58L60.68 10.58Q62.00 9.65 64.42 9.65L64.42 9.65ZM75.20 20.12L75.20 20.12Q73.91 20.12 72.86 19.55L72.86 19.55L72.86 19.55Q71.81 18.98 71.20 17.87L71.20 17.87L71.20 17.87Q70.58 16.77 70.58 15.23L70.58 15.23L70.58 15.23Q70.58 14.05 70.99 12.61L70.99 12.61L70.99 12.61Q71.87 9.53 73.77 8.26L73.77 8.26L73.77 8.26Q75.66 6.99 77.82 6.99L77.82 6.99L77.82 6.99Q79.78 6.99 81.36 8.42L81.36 8.42L81.93 7.86L81.93 7.86Q82.42 7.45 82.76 7.30L82.76 7.30L82.76 7.30Q83.11 7.15 83.57 7.15L83.57 7.15L83.57 7.15Q84.07 7.15 84.38 7.39L84.38 7.39L84.38 7.39Q84.69 7.63 84.69 8.03L84.69 8.03L84.69 8.03Q84.69 8.19 84.63 8.40L84.63 8.40L83.94 10.82L83.94 10.82Q83.74 11.44 83.48 11.69L83.48 11.69L83.48 11.69Q83.22 11.94 82.78 11.94L82.78 11.94L82.78 11.94Q82.32 11.94 81.96 11.71L81.96 11.71L81.96 11.71Q81.61 11.48 81.15 10.88L81.15 10.88L81.15 10.88Q80.53 10.07 80.06 9.73L80.06 9.73L80.06 9.73Q79.59 9.40 79.03 9.40L79.03 9.40L79.03 9.40Q78.16 9.40 77.38 10.27L77.38 10.27L77.38 10.27Q76.60 11.15 76.03 13.19L76.03 13.19L76.03 13.19Q75.66 14.52 75.66 15.48L75.66 15.48L75.66 15.48Q75.66 16.50 76.06 17.03L76.06 17.03L76.06 17.03Q76.45 17.56 77.16 17.56L77.16 17.56L77.16 17.56Q77.78 17.56 78.11 17.27L78.11 17.27L78.11 17.27Q78.45 16.98 78.64 16.27L78.64 16.27L78.78 15.79L78.78 15.79Q78.87 15.40 78.87 15.27L78.87 15.27L78.87 15.27Q78.87 15.04 78.77 14.94L78.77 14.94L78.77 14.94Q78.66 14.84 78.41 14.73L78.41 14.73L77.74 14.48L77.74 14.48Q77.30 14.30 77.30 13.84L77.30 13.84L77.30 13.84Q77.30 13.71 77.32 13.63L77.32 13.63L77.32 13.63Q77.39 13.38 77.60 13.27L77.60 13.27L77.60 13.27Q77.80 13.15 78.22 13.15L78.22 13.15L84.03 13.17L84.03 13.17Q84.67 13.17 84.67 13.57L84.67 13.57L84.67 13.57Q84.67 13.65 84.63 13.80L84.63 13.80L84.63 13.80Q84.55 14.09 84.38 14.27L84.38 14.27L84.38 14.27Q84.20 14.44 83.88 14.61L83.88 14.61L83.38 14.90L83.38 14.90Q83.19 15.02 83.09 15.12L83.09 15.12L83.09 15.12Q82.99 15.23 82.95 15.38L82.95 15.38L81.93 18.94L81.93 18.94Q81.74 19.58 81.50 19.79L81.50 19.79L81.50 19.79Q81.26 20 80.91 20L80.91 20L80.11 20L80.11 20Q79.64 20 79.35 19.81L79.35 19.81L79.35 19.81Q79.05 19.62 78.86 19.06L78.86 19.06L78.66 18.50L78.66 18.50Q77.28 20.12 75.20 20.12L75.20 20.12ZM91.52 9.82L91.52 9.82Q94.13 9.82 95.38 10.88L95.38 10.88L95.38 10.88Q96.62 11.94 96.62 13.65L96.62 13.65L96.62 13.65Q96.62 14.23 96.46 14.94L96.46 14.94L96.46 14.94Q96.10 16.52 95.10 17.70L95.10 17.70L95.10 17.70Q94.10 18.88 92.64 19.53L92.64 19.53L92.64 19.53Q91.19 20.17 89.50 20.17L89.50 20.17L89.50 20.17Q86.82 20.17 85.54 19.11L85.54 19.11L85.54 19.11Q84.26 18.04 84.26 16.27L84.26 16.27L84.26 16.27Q84.26 15.67 84.42 14.94L84.42 14.94L84.42 14.94Q84.78 13.44 85.81 12.27L85.81 12.27L85.81 12.27Q86.84 11.11 88.33 10.47L88.33 10.47L88.33 10.47Q89.82 9.82 91.52 9.82L91.52 9.82ZM91.46 11.53L91.46 11.53Q91.06 11.53 90.60 12.25L90.60 12.25L90.60 12.25Q90.15 12.98 89.54 14.98L89.54 14.98L89.54 14.98Q88.92 16.98 88.92 17.79L88.92 17.79L88.92 17.79Q88.92 18.21 89.05 18.35L89.05 18.35L89.05 18.35Q89.19 18.50 89.42 18.50L89.42 18.50L89.42 18.50Q89.82 18.54 90.26 17.81L90.26 17.81L90.26 17.81Q90.69 17.08 91.34 14.96L91.34 14.96L91.34 14.96Q91.94 13.09 91.94 12.25L91.94 12.25L91.94 12.25Q91.94 11.84 91.82 11.69L91.82 11.69L91.82 11.69Q91.69 11.53 91.46 11.53L91.46 11.53ZM104.14 9.82L104.14 9.82Q106.76 9.82 108.00 10.88L108.00 10.88L108.00 10.88Q109.24 11.94 109.24 13.65L109.24 13.65L109.24 13.65Q109.24 14.23 109.09 14.94L109.09 14.94L109.09 14.94Q108.72 16.52 107.72 17.70L107.72 17.70L107.72 17.70Q106.72 18.88 105.27 19.53L105.27 19.53L105.27 19.53Q103.81 20.17 102.12 20.17L102.12 20.17L102.12 20.17Q99.44 20.17 98.17 19.11L98.17 19.11L98.17 19.11Q96.89 18.04 96.89 16.27L96.89 16.27L96.89 16.27Q96.89 15.67 97.04 14.94L97.04 14.94L97.04 14.94Q97.41 13.44 98.43 12.27L98.43 12.27L98.43 12.27Q99.46 11.11 100.96 10.47L100.96 10.47L100.96 10.47Q102.45 9.82 104.14 9.82L104.14 9.82ZM104.08 11.53L104.08 11.53Q103.68 11.53 103.23 12.25L103.23 12.25L103.23 12.25Q102.77 12.98 102.16 14.98L102.16 14.98L102.16 14.98Q101.54 16.98 101.54 17.79L101.54 17.79L101.54 17.79Q101.54 18.21 101.68 18.35L101.68 18.35L101.68 18.35Q101.81 18.50 102.04 18.50L102.04 18.50L102.04 18.50Q102.45 18.54 102.88 17.81L102.88 17.81L102.88 17.81Q103.31 17.08 103.97 14.96L103.97 14.96L103.97 14.96Q104.56 13.09 104.56 12.25L104.56 12.25L104.56 12.25Q104.56 11.84 104.44 11.69L104.44 11.69L104.44 11.69Q104.31 11.53 104.08 11.53L104.08 11.53ZM120.07 17.23L120.07 17.23Q120.03 17.38 120.03 17.44L120.03 17.44L120.03 17.44Q120.03 17.58 120.11 17.65L120.11 17.65L120.11 17.65Q120.19 17.73 120.30 17.73L120.30 17.73L120.30 17.73Q120.53 17.73 120.70 17.53L120.70 17.53L120.70 17.53Q120.86 17.33 120.92 17.33L120.92 17.33L120.92 17.33Q121.02 17.33 121.07 17.46L121.07 17.46L121.07 17.46Q121.13 17.59 121.13 17.77L121.13 17.77L121.13 17.77Q121.15 18.29 120.74 18.83L120.74 18.83L120.74 18.83Q120.32 19.36 119.63 19.71L119.63 19.71L119.63 19.71Q118.94 20.06 118.13 20.06L118.13 20.06L118.13 20.06Q117.17 20.06 116.46 19.69L116.46 19.69L116.46 19.69Q115.74 19.33 115.47 18.73L115.47 18.73L115.47 18.73Q114.95 19.40 114.28 19.73L114.28 19.73L114.28 19.73Q113.61 20.06 112.86 20.06L112.86 20.06L112.86 20.06Q111.97 20.06 111.21 19.62L111.21 19.62L111.21 19.62Q110.45 19.17 110.00 18.35L110.00 18.35L110.00 18.35Q109.55 17.54 109.55 16.50L109.55 16.50L109.55 16.50Q109.55 14.75 110.21 13.20L110.21 13.20L110.21 13.20Q110.87 11.65 112.07 10.70L112.07 10.70L112.07 10.70Q113.26 9.74 114.78 9.74L114.78 9.74L114.78 9.74Q115.61 9.74 116.20 9.94L116.20 9.94L116.20 9.94Q116.78 10.13 117.26 10.51L117.26 10.51L117.92 8.36L117.92 8.36Q117.98 8.19 117.98 8.07L117.98 8.07L117.98 8.07Q117.98 7.86 117.87 7.72L117.87 7.72L117.87 7.72Q117.76 7.59 117.59 7.45L117.59 7.45L117.59 7.45Q117.40 7.30 117.31 7.18L117.31 7.18L117.31 7.18Q117.22 7.07 117.28 6.88L117.28 6.88L117.28 6.88Q117.40 6.43 118.49 6.11L118.49 6.11L118.49 6.11Q119.59 5.78 120.78 5.78L120.78 5.78L120.78 5.78Q121.90 5.78 122.43 6.20L122.43 6.20L122.43 6.20Q122.96 6.63 122.96 7.36L122.96 7.36L122.96 7.36Q122.96 7.78 122.82 8.19L122.82 8.19L120.07 17.23ZM116.86 11.82L116.86 11.82Q116.55 11.55 116.19 11.55L116.19 11.55L116.19 11.55Q115.63 11.55 115.09 12.38L115.09 12.38L115.09 12.38Q114.55 13.21 114.22 14.38L114.22 14.38L114.22 14.38Q113.90 15.55 113.92 16.50L113.92 16.50L113.92 16.50Q113.92 17.56 114.61 17.56L114.61 17.56L114.61 17.56Q114.86 17.56 115.03 17.35L115.03 17.35L115.03 17.35Q115.20 17.15 115.36 16.69L115.36 16.69L116.86 11.82ZM128.25 9.65L128.25 9.65Q129.85 9.65 131.01 9.94L131.01 9.94L131.01 9.94Q132.18 10.22 132.80 10.74L132.80 10.74L132.80 10.74Q133.43 11.26 133.43 11.92L133.43 11.92L133.43 11.92Q133.43 12.59 132.90 13.01L132.90 13.01L132.90 13.01Q132.37 13.44 131.43 13.44L131.43 13.44L131.43 13.44Q130.46 13.44 129.80 12.96L129.80 12.96L129.80 12.96Q129.14 12.48 129.14 11.74L129.14 11.74L129.14 11.74Q129.14 11.49 129.21 11.26L129.21 11.26L129.21 11.26Q128.87 11.17 128.60 11.17L128.60 11.17L128.60 11.17Q128.12 11.17 127.80 11.40L127.80 11.40L127.80 11.40Q127.48 11.63 127.50 12.05L127.50 12.05L127.50 12.05Q127.50 12.55 128.00 12.90L128.00 12.90L128.00 12.90Q128.50 13.25 129.62 13.77L129.62 13.77L129.62 13.77Q130.58 14.19 131.20 14.54L131.20 14.54L131.20 14.54Q131.83 14.90 132.26 15.44L132.26 15.44L132.26 15.44Q132.70 15.98 132.70 16.71L132.70 16.71L132.70 16.71Q132.70 16.86 132.62 17.29L132.62 17.29L132.62 17.29Q132.31 18.58 130.91 19.33L130.91 19.33L130.91 19.33Q129.50 20.08 127.21 20.08L127.21 20.08L127.21 20.08Q124.63 20.08 123.12 19.38L123.12 19.38L123.12 19.38Q121.61 18.69 121.61 17.48L121.61 17.48L121.61 17.48Q121.61 16.65 122.11 16.23L122.11 16.23L122.11 16.23Q122.61 15.81 123.44 15.81L123.44 15.81L123.44 15.81Q124.40 15.81 125.09 16.40L125.09 16.40L125.09 16.40Q125.77 17.00 125.77 17.92L125.77 17.92L125.77 17.92Q125.77 18.17 125.71 18.44L125.71 18.44L125.71 18.44Q126.17 18.56 126.60 18.56L126.60 18.56L126.60 18.56Q127.10 18.56 127.42 18.29L127.42 18.29L127.42 18.29Q127.75 18.02 127.75 17.54L127.75 17.54L127.75 17.54Q127.73 17.09 127.31 16.78L127.31 16.78L127.31 16.78Q126.88 16.46 125.96 16.02L125.96 16.02L125.96 16.02Q125.10 15.61 124.54 15.26L124.54 15.26L124.54 15.26Q123.98 14.90 123.58 14.36L123.58 14.36L123.58 14.36Q123.19 13.82 123.19 13.09L123.19 13.09L123.19 13.09Q123.19 11.51 124.51 10.58L124.51 10.58L124.51 10.58Q125.83 9.65 128.25 9.65L128.25 9.65Z" fill="none" stroke="#ffffff" stroke-width="3" stroke-linejoin="round" stroke-miterlimit="2"/><path transform="translate(6,0)rotate(0)" d="M5.70 20.12L5.70 20.12Q4.41 20.12 3.36 19.55L3.36 19.55L3.36 19.55Q2.31 18.98 1.69 17.87L1.69 17.87L1.69 17.87Q1.08 16.77 1.08 15.23L1.08 15.23L1.08 15.23Q1.08 14.05 1.48 12.61L1.48 12.61L1.48 12.61Q2.37 9.53 4.26 8.26L4.26 8.26L4.26 8.26Q6.16 6.99 8.31 6.99L8.31 6.99L8.31 6.99Q10.28 6.99 11.85 8.42L11.85 8.42L12.43 7.86L12.43 7.86Q12.91 7.45 13.26 7.30L13.26 7.30L13.26 7.30Q13.60 7.15 14.07 7.15L14.07 7.15L14.07 7.15Q14.57 7.15 14.87 7.39L14.87 7.39L14.87 7.39Q15.18 7.63 15.18 8.03L15.18 8.03L15.18 8.03Q15.18 8.19 15.12 8.40L15.12 8.40L14.43 10.82L14.43 10.82Q14.24 11.44 13.98 11.69L13.98 11.69L13.98 11.69Q13.72 11.94 13.28 11.94L13.28 11.94L13.28 11.94Q12.82 11.94 12.46 11.71L12.46 11.71L12.46 11.71Q12.10 11.48 11.64 10.88L11.64 10.88L11.64 10.88Q11.03 10.07 10.55 9.73L10.55 9.73L10.55 9.73Q10.08 9.40 9.53 9.40L9.53 9.40L9.53 9.40Q8.66 9.40 7.88 10.27L7.88 10.27L7.88 10.27Q7.10 11.15 6.52 13.19L6.52 13.19L6.52 13.19Q6.16 14.52 6.16 15.48L6.16 15.48L6.16 15.48Q6.16 16.50 6.55 17.03L6.55 17.03L6.55 17.03Q6.95 17.56 7.66 17.56L7.66 17.56L7.66 17.56Q8.27 17.56 8.61 17.27L8.61 17.27L8.61 17.27Q8.95 16.98 9.14 16.27L9.14 16.27L9.27 15.79L9.27 15.79Q9.37 15.40 9.37 15.27L9.37 15.27L9.37 15.27Q9.37 15.04 9.27 14.94L9.27 14.94L9.27 14.94Q9.16 14.84 8.91 14.73L8.91 14.73L8.24 14.48L8.24 14.48Q7.79 14.30 7.79 13.84L7.79 13.84L7.79 13.84Q7.79 13.71 7.81 13.63L7.81 13.63L7.81 13.63Q7.89 13.38 8.09 13.27L8.09 13.27L8.09 13.27Q8.29 13.15 8.72 13.15L8.72 13.15L14.53 13.17L14.53 13.17Q15.16 13.17 15.16 13.57L15.16 13.57L15.16 13.57Q15.16 13.65 15.12 13.80L15.12 13.80L15.12 13.80Q15.05 14.09 14.87 14.27L14.87 14.27L14.87 14.27Q14.70 14.44 14.37 14.61L14.37 14.61L13.87 14.90L13.87 14.90Q13.68 15.02 13.59 15.12L13.59 15.12L13.59 15.12Q13.49 15.23 13.45 15.38L13.45 15.38L12.43 18.94L12.43 18.94Q12.24 19.58 12.00 19.79L12.00 19.79L12.00 19.79Q11.76 20 11.41 20L11.41 20L10.60 20L10.60 20Q10.14 20 9.84 19.81L9.84 19.81L9.84 19.81Q9.54 19.62 9.35 19.06L9.35 19.06L9.16 18.50L9.16 18.50Q7.77 20.12 5.70 20.12L5.70 20.12ZM21.44 9.82L21.44 9.82Q23.65 9.82 24.98 10.64L24.98 10.64L24.98 10.64Q26.30 11.46 26.30 13.13L26.30 13.13L26.30 13.13Q26.30 13.77 26.07 14.57L26.07 14.57L25.28 17.23L25.28 17.23Q25.27 17.31 25.27 17.42L25.27 17.42L25.27 17.42Q25.27 17.73 25.52 17.73L25.52 17.73L25.52 17.73Q25.75 17.73 25.91 17.53L25.91 17.53L25.91 17.53Q26.07 17.33 26.13 17.33L26.13 17.33L26.13 17.33Q26.23 17.33 26.29 17.46L26.29 17.46L26.29 17.46Q26.36 17.59 26.36 17.77L26.36 17.77L26.36 17.77Q26.38 18.29 25.97 18.83L25.97 18.83L25.97 18.83Q25.55 19.36 24.86 19.71L24.86 19.71L24.86 19.71Q24.17 20.06 23.34 20.06L23.34 20.06L23.34 20.06Q22.34 20.06 21.63 19.69L21.63 19.69L21.63 19.69Q20.92 19.33 20.65 18.61L20.65 18.61L20.65 18.61Q20.07 19.31 19.28 19.68L19.28 19.68L19.28 19.68Q18.49 20.06 17.59 20.06L17.59 20.06L17.59 20.06Q16.57 20.06 15.88 19.66L15.88 19.66L15.88 19.66Q15.18 19.27 14.85 18.64L14.85 18.64L14.85 18.64Q14.51 18.02 14.51 17.33L14.51 17.33L14.51 17.33Q14.51 17.02 14.57 16.73L14.57 16.73L14.57 16.73Q14.87 15.40 15.90 14.73L15.90 14.73L15.90 14.73Q16.93 14.05 18.36 14.05L18.36 14.05L18.36 14.05Q19.95 14.05 21.49 14.55L21.49 14.55L21.97 13.28L21.97 13.28Q22.23 12.48 22.23 12.03L22.23 12.03L22.23 12.03Q22.21 11.57 21.92 11.34L21.92 11.34L21.92 11.34Q21.63 11.11 21.03 11.11L21.03 11.11L21.03 11.11Q21.15 11.42 21.15 11.74L21.15 11.74L21.15 11.74Q21.15 12.46 20.61 12.98L20.61 12.98L20.61 12.98Q20.07 13.50 19.07 13.50L19.07 13.50L19.07 13.50Q18.13 13.50 17.60 13.08L17.60 13.08L17.60 13.08Q17.07 12.67 17.07 12.05L17.07 12.05L17.07 12.05Q17.07 11.09 18.15 10.46L18.15 10.46L18.15 10.46Q19.22 9.82 21.44 9.82L21.44 9.82ZM20.36 15.65L20.36 15.65Q19.82 15.65 19.48 16.06L19.48 16.06L19.48 16.06Q19.15 16.48 19.15 16.96L19.15 16.96L19.15 16.96Q19.15 17.27 19.29 17.46L19.29 17.46L19.29 17.46Q19.43 17.65 19.70 17.65L19.70 17.65L19.70 17.65Q19.95 17.65 20.25 17.45L20.25 17.45L20.25 17.45Q20.55 17.25 20.69 16.84L20.69 16.84L21.09 15.71L21.09 15.71Q20.76 15.65 20.36 15.65L20.36 15.65ZM46.62 13.55L45.45 17.34L45.45 17.34Q45.41 17.42 45.41 17.58L45.41 17.58L45.41 17.58Q45.41 17.71 45.48 17.79L45.48 17.79L45.48 17.79Q45.55 17.86 45.66 17.86L45.66 17.86L45.66 17.86Q45.89 17.86 46.06 17.66L46.06 17.66L46.06 17.66Q46.22 17.46 46.28 17.46L46.28 17.46L46.28 17.46Q46.37 17.46 46.43 17.59L46.43 17.59L46.43 17.59Q46.49 17.71 46.49 17.88L46.49 17.88L46.49 17.88Q46.51 18.44 46.12 18.97L46.12 18.97L46.12 18.97Q45.74 19.50 45.00 19.84L45.00 19.84L45.00 19.84Q44.26 20.17 43.22 20.17L43.22 20.17L43.22 20.17Q41.95 20.17 41.20 19.59L41.20 19.59L41.20 19.59Q40.45 19.00 40.43 18.02L40.43 18.02L40.43 18.02Q40.43 17.31 40.77 16.42L40.77 16.42L41.83 13.65L41.83 13.65Q41.93 13.40 41.93 13.25L41.93 13.25L41.93 13.25Q41.93 13.00 41.77 12.85L41.77 12.85L41.77 12.85Q41.60 12.71 41.37 12.71L41.37 12.71L41.37 12.71Q41.04 12.71 40.70 13.00L40.70 13.00L40.70 13.00Q40.35 13.28 40.08 13.90L40.08 13.90L39.02 17.34L39.02 17.34Q38.99 17.42 38.99 17.58L38.99 17.58L38.99 17.58Q38.99 17.71 39.05 17.79L39.05 17.79L39.05 17.79Q39.12 17.86 39.24 17.86L39.24 17.86L39.24 17.86Q39.47 17.86 39.63 17.66L39.63 17.66L39.63 17.66Q39.79 17.46 39.85 17.46L39.85 17.46L39.85 17.46Q39.95 17.46 40.01 17.59L40.01 17.59L40.01 17.59Q40.06 17.71 40.06 17.88L40.06 17.88L40.06 17.88Q40.08 18.44 39.70 18.97L39.70 18.97L39.70 18.97Q39.31 19.50 38.57 19.84L38.57 19.84L38.57 19.84Q37.83 20.17 36.79 20.17L36.79 20.17L36.79 20.17Q35.52 20.17 34.77 19.59L34.77 19.59L34.77 19.59Q34.02 19.00 34.00 18.02L34.00 18.02L34.00 18.02Q34.00 17.31 34.35 16.42L34.35 16.42L35.41 13.65L35.41 13.65Q35.50 13.40 35.50 13.25L35.50 13.25L35.50 13.25Q35.50 13.00 35.34 12.85L35.34 12.85L35.34 12.85Q35.18 12.71 34.94 12.71L34.94 12.71L34.94 12.71Q34.62 12.71 34.27 12.99L34.27 12.99L34.27 12.99Q33.92 13.27 33.69 13.88L33.69 13.88L32.42 18.00L32.42 18.00Q32.35 18.21 32.35 18.40L32.35 18.40L32.35 18.40Q32.35 18.63 32.44 18.78L32.44 18.78L32.44 18.78Q32.54 18.92 32.71 19.08L32.71 19.08L32.71 19.08Q32.85 19.19 32.90 19.29L32.90 19.29L32.90 19.29Q32.96 19.38 32.92 19.52L32.92 19.52L32.92 19.52Q32.85 19.77 32.56 19.88L32.56 19.88L32.56 19.88Q32.27 20 31.65 20L31.65 20L27.27 20L27.27 20Q26.77 20 26.54 19.84L26.54 19.84L26.54 19.84Q26.32 19.67 26.38 19.40L26.38 19.40L26.38 19.40Q26.46 19.17 26.79 19.00L26.79 19.00L26.79 19.00Q27.07 18.85 27.27 18.63L27.27 18.63L27.27 18.63Q27.46 18.42 27.59 17.96L27.59 17.96L29.31 12.40L29.31 12.40Q29.34 12.30 29.34 12.13L29.34 12.13L29.34 12.13Q29.34 11.92 29.26 11.80L29.26 11.80L29.26 11.80Q29.17 11.69 28.98 11.51L28.98 11.51L28.98 11.51Q28.79 11.36 28.71 11.24L28.71 11.24L28.71 11.24Q28.63 11.13 28.69 10.94L28.69 10.94L28.69 10.94Q28.81 10.49 29.90 10.16L29.90 10.16L29.90 10.16Q31.00 9.82 32.19 9.82L32.19 9.82L32.19 9.82Q33.14 9.82 33.68 10.34L33.68 10.34L33.68 10.34Q34.23 10.86 34.21 11.76L34.21 11.76L34.21 11.76Q35.00 10.67 35.88 10.24L35.88 10.24L35.88 10.24Q36.75 9.82 37.77 9.82L37.77 9.82L37.77 9.82Q38.89 9.82 39.59 10.47L39.59 10.47L39.59 10.47Q40.29 11.11 40.37 12.15L40.37 12.15L40.37 12.15Q41.20 10.84 42.14 10.33L42.14 10.33L42.14 10.33Q43.08 9.82 44.20 9.82L44.20 9.82L44.20 9.82Q45.37 9.82 46.10 10.53L46.10 10.53L46.10 10.53Q46.82 11.24 46.82 12.38L46.82 12.38L46.82 12.38Q46.82 12.98 46.62 13.55L46.62 13.55ZM53.84 9.72L53.84 9.72Q56.28 9.72 57.38 10.50L57.38 10.50L57.38 10.50Q58.48 11.28 58.48 12.50L58.48 12.50L58.48 12.50Q58.48 12.86 58.40 13.17L58.40 13.17L58.40 13.17Q58.11 14.44 56.79 14.99L56.79 14.99L56.79 14.99Q55.48 15.54 53.69 15.54L53.69 15.54L53.69 15.54Q52.78 15.54 51.99 15.42L51.99 15.42L51.99 15.42Q51.97 16.42 52.53 16.82L52.53 16.82L52.53 16.82Q53.09 17.23 54.09 17.23L54.09 17.23L54.09 17.23Q54.55 17.23 54.98 17.12L54.98 17.12L54.98 17.12Q55.40 17.02 56.05 16.81L56.05 16.81L56.05 16.81Q56.59 16.61 56.78 16.61L56.78 16.61L56.78 16.61Q57.00 16.61 57.00 16.86L57.00 16.86L57.00 16.86Q57.02 17.54 56.50 18.28L56.50 18.28L56.50 18.28Q55.98 19.02 54.96 19.54L54.96 19.54L54.96 19.54Q53.94 20.06 52.49 20.06L52.49 20.06L52.49 20.06Q50.36 20.06 48.99 18.98L48.99 18.98L48.99 18.98Q47.63 17.90 47.63 15.84L47.63 15.84L47.63 15.84Q47.63 15.27 47.78 14.50L47.78 14.50L47.78 14.50Q48.26 12.13 49.89 10.93L49.89 10.93L49.89 10.93Q51.51 9.72 53.84 9.72L53.84 9.72ZM52.13 14.27L52.13 14.27Q52.20 14.28 52.34 14.28L52.34 14.28L52.34 14.28Q53.15 14.28 53.57 13.53L53.57 13.53L53.57 13.53Q53.99 12.78 53.98 11.86L53.98 11.86L53.98 11.86Q53.96 11.32 53.67 11.32L53.67 11.32L53.67 11.32Q53.46 11.32 53.17 11.66L53.17 11.66L53.17 11.66Q52.88 12.00 52.60 12.67L52.60 12.67L52.60 12.67Q52.32 13.34 52.13 14.27L52.13 14.27ZM64.42 9.65L64.42 9.65Q66.02 9.65 67.18 9.94L67.18 9.94L67.18 9.94Q68.35 10.22 68.97 10.74L68.97 10.74L68.97 10.74Q69.60 11.26 69.60 11.92L69.60 11.92L69.60 11.92Q69.60 12.59 69.07 13.01L69.07 13.01L69.07 13.01Q68.54 13.44 67.60 13.44L67.60 13.44L67.60 13.44Q66.64 13.44 65.97 12.96L65.97 12.96L65.97 12.96Q65.31 12.48 65.31 11.74L65.31 11.74L65.31 11.74Q65.31 11.49 65.39 11.26L65.39 11.26L65.39 11.26Q65.04 11.17 64.77 11.17L64.77 11.17L64.77 11.17Q64.29 11.17 63.97 11.40L63.97 11.40L63.97 11.40Q63.65 11.63 63.67 12.05L63.67 12.05L63.67 12.05Q63.67 12.55 64.17 12.90L64.17 12.90L64.17 12.90Q64.67 13.25 65.79 13.77L65.79 13.77L65.79 13.77Q66.75 14.19 67.38 14.54L67.38 14.54L67.38 14.54Q68.00 14.90 68.44 15.44L68.44 15.44L68.44 15.44Q68.87 15.98 68.87 16.71L68.87 16.71L68.87 16.71Q68.87 16.86 68.79 17.29L68.79 17.29L68.79 17.29Q68.48 18.58 67.08 19.33L67.08 19.33L67.08 19.33Q65.67 20.08 63.38 20.08L63.38 20.08L63.38 20.08Q60.81 20.08 59.30 19.38L59.30 19.38L59.30 19.38Q57.79 18.69 57.79 17.48L57.79 17.48L57.79 17.48Q57.79 16.65 58.29 16.23L58.29 16.23L58.29 16.23Q58.79 15.81 59.61 15.81L59.61 15.81L59.61 15.81Q60.58 15.81 61.26 16.40L61.26 16.40L61.26 16.40Q61.94 17.00 61.94 17.92L61.94 17.92L61.94 17.92Q61.94 18.17 61.88 18.44L61.88 18.44L61.88 18.44Q62.35 18.56 62.77 18.56L62.77 18.56L62.77 18.56Q63.27 18.56 63.60 18.29L63.60 18.29L63.60 18.29Q63.92 18.02 63.92 17.54L63.92 17.54L63.92 17.54Q63.90 17.09 63.48 16.78L63.48 16.78L63.48 16.78Q63.06 16.46 62.13 16.02L62.13 16.02L62.13 16.02Q61.27 15.61 60.71 15.26L60.71 15.26L60.71 15.26Q60.15 14.90 59.76 14.36L59.76 14.36L59.76 14.36Q59.36 13.82 59.36 13.09L59.36 13.09L59.36 13.09Q59.36 11.51 60.68 10.58L60.68 10.58L60.68 10.58Q62.00 9.65 64.42 9.65L64.42 9.65ZM75.20 20.12L75.20 20.12Q73.91 20.12 72.86 19.55L72.86 19.55L72.86 19.55Q71.81 18.98 71.20 17.87L71.20 17.87L71.20 17.87Q70.58 16.77 70.58 15.23L70.58 15.23L70.58 15.23Q70.58 14.05 70.99 12.61L70.99 12.61L70.99 12.61Q71.87 9.53 73.77 8.26L73.77 8.26L73.77 8.26Q75.66 6.99 77.82 6.99L77.82 6.99L77.82 6.99Q79.78 6.99 81.36 8.42L81.36 8.42L81.93 7.86L81.93 7.86Q82.42 7.45 82.76 7.30L82.76 7.30L82.76 7.30Q83.11 7.15 83.57 7.15L83.57 7.15L83.57 7.15Q84.07 7.15 84.38 7.39L84.38 7.39L84.38 7.39Q84.69 7.63 84.69 8.03L84.69 8.03L84.69 8.03Q84.69 8.19 84.63 8.40L84.63 8.40L83.94 10.82L83.94 10.82Q83.74 11.44 83.48 11.69L83.48 11.69L83.48 11.69Q83.22 11.94 82.78 11.94L82.78 11.94L82.78 11.94Q82.32 11.94 81.96 11.71L81.96 11.71L81.96 11.71Q81.61 11.48 81.15 10.88L81.15 10.88L81.15 10.88Q80.53 10.07 80.06 9.73L80.06 9.73L80.06 9.73Q79.59 9.40 79.03 9.40L79.03 9.40L79.03 9.40Q78.16 9.40 77.38 10.27L77.38 10.27L77.38 10.27Q76.60 11.15 76.03 13.19L76.03 13.19L76.03 13.19Q75.66 14.52 75.66 15.48L75.66 15.48L75.66 15.48Q75.66 16.50 76.06 17.03L76.06 17.03L76.06 17.03Q76.45 17.56 77.16 17.56L77.16 17.56L77.16 17.56Q77.78 17.56 78.11 17.27L78.11 17.27L78.11 17.27Q78.45 16.98 78.64 16.27L78.64 16.27L78.78 15.79L78.78 15.79Q78.87 15.40 78.87 15.27L78.87 15.27L78.87 15.27Q78.87 15.04 78.77 14.94L78.77 14.94L78.77 14.94Q78.66 14.84 78.41 14.73L78.41 14.73L77.74 14.48L77.74 14.48Q77.30 14.30 77.30 13.84L77.30 13.84L77.30 13.84Q77.30 13.71 77.32 13.63L77.32 13.63L77.32 13.63Q77.39 13.38 77.60 13.27L77.60 13.27L77.60 13.27Q77.80 13.15 78.22 13.15L78.22 13.15L84.03 13.17L84.03 13.17Q84.67 13.17 84.67 13.57L84.67 13.57L84.67 13.57Q84.67 13.65 84.63 13.80L84.63 13.80L84.63 13.80Q84.55 14.09 84.38 14.27L84.38 14.27L84.38 14.27Q84.20 14.44 83.88 14.61L83.88 14.61L83.38 14.90L83.38 14.90Q83.19 15.02 83.09 15.12L83.09 15.12L83.09 15.12Q82.99 15.23 82.95 15.38L82.95 15.38L81.93 18.94L81.93 18.94Q81.74 19.58 81.50 19.79L81.50 19.79L81.50 19.79Q81.26 20 80.91 20L80.91 20L80.11 20L80.11 20Q79.64 20 79.35 19.81L79.35 19.81L79.35 19.81Q79.05 19.62 78.86 19.06L78.86 19.06L78.66 18.50L78.66 18.50Q77.28 20.12 75.20 20.12L75.20 20.12ZM91.52 9.82L91.52 9.82Q94.13 9.82 95.38 10.88L95.38 10.88L95.38 10.88Q96.62 11.94 96.62 13.65L96.62 13.65L96.62 13.65Q96.62 14.23 96.46 14.94L96.46 14.94L96.46 14.94Q96.10 16.52 95.10 17.70L95.10 17.70L95.10 17.70Q94.10 18.88 92.64 19.53L92.64 19.53L92.64 19.53Q91.19 20.17 89.50 20.17L89.50 20.17L89.50 20.17Q86.82 20.17 85.54 19.11L85.54 19.11L85.54 19.11Q84.26 18.04 84.26 16.27L84.26 16.27L84.26 16.27Q84.26 15.67 84.42 14.94L84.42 14.94L84.42 14.94Q84.78 13.44 85.81 12.27L85.81 12.27L85.81 12.27Q86.84 11.11 88.33 10.47L88.33 10.47L88.33 10.47Q89.82 9.82 91.52 9.82L91.52 9.82ZM91.46 11.53L91.46 11.53Q91.06 11.53 90.60 12.25L90.60 12.25L90.60 12.25Q90.15 12.98 89.54 14.98L89.54 14.98L89.54 14.98Q88.92 16.98 88.92 17.79L88.92 17.79L88.92 17.79Q88.92 18.21 89.05 18.35L89.05 18.35L89.05 18.35Q89.19 18.50 89.42 18.50L89.42 18.50L89.42 18.50Q89.82 18.54 90.26 17.81L90.26 17.81L90.26 17.81Q90.69 17.08 91.34 14.96L91.34 14.96L91.34 14.96Q91.94 13.09 91.94 12.25L91.94 12.25L91.94 12.25Q91.94 11.84 91.82 11.69L91.82 11.69L91.82 11.69Q91.69 11.53 91.46 11.53L91.46 11.53ZM104.14 9.82L104.14 9.82Q106.76 9.82 108.00 10.88L108.00 10.88L108.00 10.88Q109.24 11.94 109.24 13.65L109.24 13.65L109.24 13.65Q109.24 14.23 109.09 14.94L109.09 14.94L109.09 14.94Q108.72 16.52 107.72 17.70L107.72 17.70L107.72 17.70Q106.72 18.88 105.27 19.53L105.27 19.53L105.27 19.53Q103.81 20.17 102.12 20.17L102.12 20.17L102.12 20.17Q99.44 20.17 98.17 19.11L98.17 19.11L98.17 19.11Q96.89 18.04 96.89 16.27L96.89 16.27L96.89 16.27Q96.89 15.67 97.04 14.94L97.04 14.94L97.04 14.94Q97.41 13.44 98.43 12.27L98.43 12.27L98.43 12.27Q99.46 11.11 100.96 10.47L100.96 10.47L100.96 10.47Q102.45 9.82 104.14 9.82L104.14 9.82ZM104.08 11.53L104.08 11.53Q103.68 11.53 103.23 12.25L103.23 12.25L103.23 12.25Q102.77 12.98 102.16 14.98L102.16 14.98L102.16 14.98Q101.54 16.98 101.54 17.79L101.54 17.79L101.54 17.79Q101.54 18.21 101.68 18.35L101.68 18.35L101.68 18.35Q101.81 18.50 102.04 18.50L102.04 18.50L102.04 18.50Q102.45 18.54 102.88 17.81L102.88 17.81L102.88 17.81Q103.31 17.08 103.97 14.96L103.97 14.96L103.97 14.96Q104.56 13.09 104.56 12.25L104.56 12.25L104.56 12.25Q104.56 11.84 104.44 11.69L104.44 11.69L104.44 11.69Q104.31 11.53 104.08 11.53L104.08 11.53ZM120.07 17.23L120.07 17.23Q120.03 17.38 120.03 17.44L120.03 17.44L120.03 17.44Q120.03 17.58 120.11 17.65L120.11 17.65L120.11 17.65Q120.19 17.73 120.30 17.73L120.30 17.73L120.30 17.73Q120.53 17.73 120.70 17.53L120.70 17.53L120.70 17.53Q120.86 17.33 120.92 17.33L120.92 17.33L120.92 17.33Q121.02 17.33 121.07 17.46L121.07 17.46L121.07 17.46Q121.13 17.59 121.13 17.77L121.13 17.77L121.13 17.77Q121.15 18.29 120.74 18.83L120.74 18.83L120.74 18.83Q120.32 19.36 119.63 19.71L119.63 19.71L119.63 19.71Q118.94 20.06 118.13 20.06L118.13 20.06L118.13 20.06Q117.17 20.06 116.46 19.69L116.46 19.69L116.46 19.69Q115.74 19.33 115.47 18.73L115.47 18.73L115.47 18.73Q114.95 19.40 114.28 19.73L114.28 19.73L114.28 19.73Q113.61 20.06 112.86 20.06L112.86 20.06L112.86 20.06Q111.97 20.06 111.21 19.62L111.21 19.62L111.21 19.62Q110.45 19.17 110.00 18.35L110.00 18.35L110.00 18.35Q109.55 17.54 109.55 16.50L109.55 16.50L109.55 16.50Q109.55 14.75 110.21 13.20L110.21 13.20L110.21 13.20Q110.87 11.65 112.07 10.70L112.07 10.70L112.07 10.70Q113.26 9.74 114.78 9.74L114.78 9.74L114.78 9.74Q115.61 9.74 116.20 9.94L116.20 9.94L116.20 9.94Q116.78 10.13 117.26 10.51L117.26 10.51L117.92 8.36L117.92 8.36Q117.98 8.19 117.98 8.07L117.98 8.07L117.98 8.07Q117.98 7.86 117.87 7.72L117.87 7.72L117.87 7.72Q117.76 7.59 117.59 7.45L117.59 7.45L117.59 7.45Q117.40 7.30 117.31 7.18L117.31 7.18L117.31 7.18Q117.22 7.07 117.28 6.88L117.28 6.88L117.28 6.88Q117.40 6.43 118.49 6.11L118.49 6.11L118.49 6.11Q119.59 5.78 120.78 5.78L120.78 5.78L120.78 5.78Q121.90 5.78 122.43 6.20L122.43 6.20L122.43 6.20Q122.96 6.63 122.96 7.36L122.96 7.36L122.96 7.36Q122.96 7.78 122.82 8.19L122.82 8.19L120.07 17.23ZM116.86 11.82L116.86 11.82Q116.55 11.55 116.19 11.55L116.19 11.55L116.19 11.55Q115.63 11.55 115.09 12.38L115.09 12.38L115.09 12.38Q114.55 13.21 114.22 14.38L114.22 14.38L114.22 14.38Q113.90 15.55 113.92 16.50L113.92 16.50L113.92 16.50Q113.92 17.56 114.61 17.56L114.61 17.56L114.61 17.56Q114.86 17.56 115.03 17.35L115.03 17.35L115.03 17.35Q115.20 17.15 115.36 16.69L115.36 16.69L116.86 11.82ZM128.25 9.65L128.25 9.65Q129.85 9.65 131.01 9.94L131.01 9.94L131.01 9.94Q132.18 10.22 132.80 10.74L132.80 10.74L132.80 10.74Q133.43 11.26 133.43 11.92L133.43 11.92L133.43 11.92Q133.43 12.59 132.90 13.01L132.90 13.01L132.90 13.01Q132.37 13.44 131.43 13.44L131.43 13.44L131.43 13.44Q130.46 13.44 129.80 12.96L129.80 12.96L129.80 12.96Q129.14 12.48 129.14 11.74L129.14 11.74L129.14 11.74Q129.14 11.49 129.21 11.26L129.21 11.26L129.21 11.26Q128.87 11.17 128.60 11.17L128.60 11.17L128.60 11.17Q128.12 11.17 127.80 11.40L127.80 11.40L127.80 11.40Q127.48 11.63 127.50 12.05L127.50 12.05L127.50 12.05Q127.50 12.55 128.00 12.90L128.00 12.90L128.00 12.90Q128.50 13.25 129.62 13.77L129.62 13.77L129.62 13.77Q130.58 14.19 131.20 14.54L131.20 14.54L131.20 14.54Q131.83 14.90 132.26 15.44L132.26 15.44L132.26 15.44Q132.70 15.98 132.70 16.71L132.70 16.71L132.70 16.71Q132.70 16.86 132.62 17.29L132.62 17.29L132.62 17.29Q132.31 18.58 130.91 19.33L130.91 19.33L130.91 19.33Q129.50 20.08 127.21 20.08L127.21 20.08L127.21 20.08Q124.63 20.08 123.12 19.38L123.12 19.38L123.12 19.38Q121.61 18.69 121.61 17.48L121.61 17.48L121.61 17.48Q121.61 16.65 122.11 16.23L122.11 16.23L122.11 16.23Q122.61 15.81 123.44 15.81L123.44 15.81L123.44 15.81Q124.40 15.81 125.09 16.40L125.09 16.40L125.09 16.40Q125.77 17.00 125.77 17.92L125.77 17.92L125.77 17.92Q125.77 18.17 125.71 18.44L125.71 18.44L125.71 18.44Q126.17 18.56 126.60 18.56L126.60 18.56L126.60 18.56Q127.10 18.56 127.42 18.29L127.42 18.29L127.42 18.29Q127.75 18.02 127.75 17.54L127.75 17.54L127.75 17.54Q127.73 17.09 127.31 16.78L127.31 16.78L127.31 16.78Q126.88 16.46 125.96 16.02L125.96 16.02L125.96 16.02Q125.10 15.61 124.54 15.26L124.54 15.26L124.54 15.26Q123.98 14.90 123.58 14.36L123.58 14.36L123.58 14.36Q123.19 13.82 123.19 13.09L123.19 13.09L123.19 13.09Q123.19 11.51 124.51 10.58L124.51 10.58L124.51 10.58Q125.83 9.65 128.25 9.65L128.25 9.65Z" fill="#000000"/></g></svg>